<svg width="500" height="440" viewBox="0 0 500 440" fill="none" xmlns="http://www.w3.org/2000/svg">
<path fill-rule="evenodd" clip-rule="evenodd" d="M239.94 439.024C363.362 439.024 463.415 340.745 463.415 219.512C463.415 98.2789 363.362 0 239.94 0C211.219 0 183.763 5.32216 158.539 15.0172C149.286 18.8338 150.884 21.1048 161.142 18.6805C178.302 13.8638 196.369 11.2918 215.024 11.2918C327.32 11.2918 418.354 104.503 418.354 219.486C418.354 334.468 327.32 427.679 215.024 427.679C196.631 427.679 178.81 425.178 161.865 420.491C150.749 417.727 149.016 420.176 159.155 424.243C160.3 424.679 161.45 425.107 162.604 425.524L162.768 425.581C162.995 425.659 163.202 425.735 163.391 425.808C187.27 434.359 213.05 439.024 239.94 439.024ZM226.926 67.0363C207.181 100.765 188.364 132.908 188.364 195.226V264.653C188.364 270.299 185.566 279.12 185.566 279.12C179.356 296.87 176.693 314.698 174.487 348.932C173.025 371.625 173.132 380.853 173.606 387.288C174.211 393.519 177.616 392.783 179.395 390.842L187.721 381.963C191.042 378.432 191.99 376.513 193.433 370.514C193.905 368.477 194.33 366.571 194.734 364.757C196.784 355.562 198.308 348.731 202.721 339.061C207.742 328.057 212.565 367.397 212.968 371.083C213.371 374.77 216.347 374.843 217.599 373.784C218.851 372.725 223.677 368.382 223.677 368.382C225.473 366.618 226.088 364.79 225.413 361.275C224.592 357.051 223.648 352.39 222.627 347.357C211.504 292.502 191.398 193.342 225.082 132.24C228.123 127.067 230.89 127.54 232.512 131.974C247.287 174.184 243.977 347.012 243.792 353.599C243.606 360.186 246.836 357.555 247.554 355.589C247.678 355.249 247.905 354.653 248.196 353.887C249.586 350.225 252.455 342.667 252.744 340.52C263.003 264.24 265.204 228.448 254.501 148.053C253.738 142.408 256.459 141.476 258.552 146.064C286.496 209.288 274.105 273.428 264.78 321.7C264.35 323.928 263.926 326.122 263.512 328.281C262.501 333.57 264.769 333.394 267.103 328.986C269.436 324.577 274.283 315.584 274.283 315.584C277.156 309.589 279.848 309.942 281.105 315.584L291.403 355.021C292.686 359.608 295.289 359.324 296.178 354.736C300.448 332.704 302.587 305.3 291.901 272.769C290.51 268.534 289.338 261.124 289.386 255.478C289.404 253.312 289.449 250.496 289.501 247.196C289.77 230.076 290.243 199.92 288.378 179.715C286.153 155.616 274.023 101.217 243.396 55.1521C239.49 50.6619 237.175 50.4517 233.825 55.1522C231.532 59.1684 229.222 63.1134 226.926 67.0363Z" fill="white"/>
<path fill-rule="evenodd" clip-rule="evenodd" d="M461.388 202.737C469.366 208.219 474.339 214.681 475.753 222.055C483.234 261.069 388.216 310.806 263.524 333.144C138.832 355.483 31.685 341.965 24.2044 302.95C19.9869 280.954 48.3498 255.55 96.2425 233.569C102.212 240.244 105.838 249.007 105.852 258.605C105.882 237.679 123.084 220.724 144.302 220.718C123.117 220.712 105.934 203.809 105.853 182.927C105.771 203.812 88.5816 220.718 67.3903 220.718C75.6798 220.718 83.3561 223.305 89.6362 227.704C30.9621 252.9 -4.47079 282.817 0.454834 308.506C8.70731 351.546 127.123 366.421 264.943 341.73C402.762 317.04 507.798 262.133 499.545 219.093C496.854 205.059 482.452 194.02 459.482 186.37C460.32 191.763 460.958 197.221 461.388 202.737Z" fill="#FDAE2D"/>
</svg>
