<svg width="1000" height="1000" viewBox="0 0 1000 1000" fill="none" xmlns="http://www.w3.org/2000/svg">
<rect width="1000" height="1000" fill="white"/>
<path d="M166.494 373.213L81.7148 581.214H138.743L223.383 373.213H166.494Z" fill="#FFB71B"/>
<path d="M208.12 449.808L262.234 581.214H323.286L237.259 379.873L208.12 449.808Z" fill="black"/>
<path d="M425.101 432.453C414.891 432.453 405.728 434.516 397.612 438.631C389.443 442.747 382.846 448.737 377.767 456.592V436.013H334.518V580.533H378.971V499.372C378.971 489.58 381.767 481.726 387.349 475.809C392.952 469.944 400.334 466.959 409.55 466.959C417.194 466.959 422.849 469.216 426.462 473.714C430.091 478.233 431.908 485.391 431.908 495.183V580.009H476.361V493.088C476.361 472.667 472.136 457.429 463.69 447.324C455.26 437.218 442.38 432.191 425.101 432.191V432.453Z" fill="black"/>
<path d="M582.705 495.287L558.306 489.685C552.441 488.119 548.305 486.459 545.949 484.684C543.608 482.909 542.43 480.458 542.43 477.353C542.43 473.044 544.383 469.708 548.294 467.352C552.206 464.996 557.614 463.818 564.474 463.818C579.396 463.818 594.476 469.106 609.818 479.683L621.599 450.256C613.745 444.548 604.896 440.15 595.104 437.008C585.313 433.877 575.207 432.296 564.788 432.296C552.588 432.296 541.802 434.264 532.272 438.16C522.743 442.082 515.412 447.481 510.228 454.34C505.019 461.2 502.427 469.159 502.427 478.165C502.427 489.528 505.725 498.534 512.27 505.079C518.815 511.677 529.078 516.494 543.058 519.636L566.62 524.924C573.898 526.49 578.82 528.265 581.491 530.213C584.135 532.182 585.465 534.926 585.465 538.434C585.465 542.366 583.554 545.45 579.705 547.702C575.883 549.959 570.542 551.085 563.683 551.085C554.049 551.085 544.571 549.618 535.147 546.681C525.722 543.728 517.082 539.612 509.228 534.323L497.447 564.903C505.458 570.61 515.04 574.956 526.141 577.993C537.241 581.025 549.441 582.549 562.793 582.549C582.218 582.549 597.455 578.575 608.556 570.61C619.656 562.651 625.206 551.708 625.206 537.779C625.206 526.207 621.824 517.044 615.048 510.289C608.242 503.482 597.508 498.455 582.794 495.104L582.705 495.287Z" fill="black"/>
<path d="M912.051 510.996C905.297 504.241 894.563 499.162 879.85 495.863L855.398 490.261C849.533 488.695 845.397 487.035 843.041 485.26C840.685 483.485 839.506 481.034 839.506 477.929C839.506 473.62 841.475 470.284 845.371 467.928C849.266 465.572 854.691 464.394 861.55 464.394C876.473 464.394 891.552 469.682 906.894 480.259L918.675 450.832C910.821 445.124 901.972 440.726 892.181 437.584C882.389 434.453 872.284 432.872 861.864 432.872C849.717 432.872 838.878 434.84 829.348 438.736C819.819 442.658 812.436 448.057 807.252 454.916C802.058 461.775 799.451 469.735 799.451 478.741C799.451 490.103 802.734 499.11 809.295 505.655C815.84 512.253 826.102 517.07 840.03 520.212L863.592 525.5C870.87 527.066 875.792 528.841 878.462 530.789C881.122 532.758 882.437 535.502 882.437 539.01C882.437 542.942 880.525 546.026 876.677 548.278C872.855 550.535 867.514 551.661 860.655 551.661C851.02 551.661 841.543 550.194 832.118 547.257C822.693 544.304 814.054 540.188 806.2 534.899L794.419 565.479C802.482 571.186 812.012 575.532 823.112 578.569C834.213 581.601 846.413 583.125 859.765 583.125C879.19 583.125 894.427 579.151 905.527 571.186C916.628 563.227 922.178 552.284 922.178 538.355C922.152 526.783 918.769 517.62 912.02 510.813L912.051 510.996Z" fill="black"/>
<path d="M668.786 633.943H711.8L792.277 436.904H749.263L714.575 521.547L679.886 436.904H636.872L692.374 574.276L668.786 633.943Z" fill="black"/>
</svg>
