<svg width="1000" height="1000" viewBox="0 0 1000 1000" fill="none" xmlns="http://www.w3.org/2000/svg">
<rect width="1000" height="1000" fill="#0000FF"/>
<path d="M301.802 735.268C301.802 745.596 297.76 749.637 289.678 749.637C281.595 749.637 277.554 744.698 277.554 735.268V634.235H255.102V733.921C255.102 756.373 268.573 769.395 289.678 769.395C310.782 769.395 324.253 757.271 324.253 733.921V634.235H301.802V735.268ZM146.884 697.549C157.212 693.508 162.152 681.384 162.152 668.811C162.152 646.359 150.926 633.337 126.678 633.337H93V766.7H129.821C156.314 766.7 165.295 750.535 165.295 728.083C165.295 711.918 158.11 702.937 146.884 697.549ZM115.452 652.645H123.534C133.862 652.645 138.802 658.932 138.802 671.954C139.7 680.486 133.413 688.119 124.882 689.017C124.433 689.017 123.983 689.017 123.534 689.017H115.452V652.645ZM125.331 748.739H115.003V707.877H123.085C136.107 707.877 142.394 715.061 142.394 728.083C141.945 741.554 137.904 748.739 125.331 748.739ZM368.259 708.775H397.895V688.568H368.259V653.992H406.876V633.786H345.807V767.149H409.121V746.494H368.259V708.775ZM207.055 634.235H183.705V767.598H242.978V747.392H207.504V634.235H207.055ZM791.251 768.048H813.703V634.235H791.251V768.048ZM736.019 632.439C711.771 632.439 701.444 647.706 701.444 666.116V734.37C701.444 753.678 712.67 768.048 736.019 768.048C744.102 767.599 752.185 764.904 758.471 759.965L770.595 768.048V700.692H732.876V719.103H749.041V735.268C749.041 750.535 736.917 749.637 736.917 749.637H736.019C727.039 749.637 723.895 744.698 723.895 734.37V667.014C723.895 656.687 727.039 651.747 736.019 651.747C745 651.747 748.143 656.687 748.143 667.014V677.342H770.595V666.116C771.942 647.706 760.716 632.439 736.019 632.439ZM507.909 632.439C483.661 632.439 473.333 647.706 473.333 666.116V734.37C473.333 753.678 484.559 768.048 507.909 768.048C531.259 768.048 542.485 752.78 542.485 734.37V666.116C542.485 647.706 531.259 632.439 507.909 632.439ZM520.033 734.37C520.033 744.698 516.89 749.637 507.909 749.637C498.928 749.637 495.785 744.698 495.785 734.37V667.014C495.785 656.687 498.928 651.747 507.909 651.747C516.89 651.747 520.033 656.687 520.033 667.014V734.37ZM887.793 634.235V713.714L856.361 634.235H836.154V767.598H856.361V688.119L887.793 767.598H908V634.235H887.793ZM656.54 768.048H678.992V634.235H656.54V768.048ZM634.088 673.301C634.088 644.563 621.066 633.337 595.471 633.337H562.691V766.7H585.143V712.816H596.369L612.534 768.048H635.884L616.576 707.877C625.107 703.835 634.088 694.406 634.088 673.301ZM593.226 694.406H585.143V652.645H593.226C605.35 652.645 610.738 656.687 610.738 672.852C610.738 689.017 606.697 694.406 593.226 694.406Z" fill="white"/>
<mask id="mask0_1043_282" style="mask-type:luminance" maskUnits="userSpaceOnUse" x="202" y="231" width="597" height="304">
<path d="M798.432 231H202.562V534.548H798.432V231Z" fill="white"/>
</mask>
<g mask="url(#mask0_1043_282)">
<path fill-rule="evenodd" clip-rule="evenodd" d="M798.433 301.947V298.355V297.008L796.188 297.906L797.535 296.559L797.086 297.008L798.433 295.212C797.535 295.661 796.637 296.11 795.739 296.11C795.739 296.11 797.535 294.763 798.882 293.865H797.535C797.535 293.865 797.535 293.865 797.535 293.416C797.535 293.416 797.535 293.416 797.535 292.967L798.882 292.069C799.332 292.069 799.331 291.62 799.331 291.17L798.882 285.782L798.433 283.537C798.433 283.088 797.984 282.639 797.535 282.19L794.841 281.292C794.841 281.292 794.392 281.292 794.392 280.843C794.392 280.843 794.392 280.394 794.841 280.394H797.535C797.984 280.394 797.984 280.394 797.984 279.945L797.535 277.699C797.535 276.352 797.086 275.005 796.188 274.107L793.943 270.515L793.494 270.066C793.494 269.617 793.045 269.617 792.596 269.617H790.351H789.902C789.902 269.617 789.902 269.617 789.902 269.168V268.719H789.453H787.208V268.27C788.555 267.821 789.902 267.372 791.698 266.923H791.249C791.249 266.923 786.309 259.289 786.309 258.84L782.268 254.799L781.819 254.35L779.125 253.002C778.676 252.553 778.227 252.553 777.778 253.002C776.431 253.451 775.533 254.35 774.635 255.248C774.635 255.248 774.186 255.248 774.186 254.799C774.635 253.901 775.084 252.553 775.084 251.655C775.084 250.757 775.084 250.308 774.186 249.859L772.389 248.512L767.001 245.369H766.552H766.103C765.654 244.92 765.205 244.92 764.756 245.369C763.409 246.267 761.612 247.165 759.816 248.512H759.367C759.816 247.614 760.714 246.267 761.163 245.369C761.163 245.369 761.163 244.92 760.714 245.369C759.367 246.716 757.571 248.063 756.673 248.961C756.224 248.961 755.775 249.859 756.673 248.961L759.367 244.022V243.573C759.367 243.573 759.367 243.573 758.918 243.573L755.775 242.226H755.326L754.428 241.328H753.979C753.53 241.328 753.53 241.328 753.081 241.328C750.836 241.328 749.938 245.369 749.039 247.165C749.039 247.614 748.59 248.063 748.141 248.512C745.447 252.104 742.753 255.697 740.508 259.289H740.059L739.61 258.84L747.243 240.878C747.243 240.429 747.243 239.98 747.243 239.531C747.243 239.082 746.794 238.633 746.345 238.633H745.896C745.447 238.633 744.998 238.633 744.549 238.633H744.1C743.651 238.633 743.202 238.633 742.753 238.633L741.406 238.184H740.957C731.976 250.757 725.69 264.228 722.097 279.047C722.097 279.496 721.648 279.047 721.648 279.047C725.241 256.595 729.282 237.735 730.18 234.143V234.592C727.935 240.878 726.139 246.716 724.792 253.451C723.444 258.84 726.588 239.531 727.486 234.143C727.486 233.694 727.486 233.694 727.486 233.245C727.486 232.796 727.037 232.796 727.037 232.796C726.588 232.796 726.588 232.796 726.139 232.796C725.69 232.796 725.69 233.245 725.69 233.245C725.241 233.245 725.241 233.245 724.792 233.694C724.343 235.041 723.893 236.388 722.995 238.184C722.995 236.837 722.995 235.939 722.995 234.592C722.995 234.143 722.546 233.245 722.097 232.796C721.648 232.347 721.199 231.898 720.301 231.898H719.852H719.403L718.954 232.347C717.607 237.286 715.362 246.716 710.871 263.779C710.871 264.228 710.422 264.228 710.422 264.228C709.973 264.228 709.973 264.228 709.973 263.779C711.32 252.553 710.871 241.328 709.075 230.551C709.075 230.102 708.626 229.653 708.177 229.653H706.381H704.585C704.136 229.653 704.136 229.653 704.136 230.102C703.687 234.143 703.238 242.226 700.993 253.901C700.993 253.901 700.993 254.35 700.544 254.35C700.544 254.35 700.095 254.35 700.095 253.901C700.544 245.818 700.544 235.939 700.544 231.449C700.544 231 700.544 231 700.095 230.551C699.646 230.102 699.646 230.102 699.196 230.102L692.012 231.898C691.563 231.898 690.665 232.347 690.665 232.796C685.725 241.777 681.684 259.738 678.541 275.005C678.541 275.454 678.092 275.005 678.092 275.005C679.888 261.534 682.582 248.063 687.073 235.041C687.522 234.592 687.522 234.592 687.073 234.143C686.623 233.694 686.624 233.694 686.174 234.143L683.031 235.939L681.235 237.286C680.337 238.184 679.439 239.082 678.541 240.429C675.398 249.41 672.703 258.391 670.458 267.372C670.458 267.821 670.458 267.821 670.009 267.821C669.56 267.821 669.56 267.821 669.56 267.372C670.458 258.391 672.703 249.859 675.847 241.777L669.56 247.165L660.13 256.146C659.232 257.044 658.783 257.942 658.334 258.84L656.538 262.432C656.538 262.432 656.538 262.432 656.089 262.432C655.64 262.432 655.64 262.432 655.64 262.432V261.534V261.085C656.089 259.738 656.089 258.391 656.538 257.044C656.538 256.595 656.538 256.595 656.538 256.146C656.987 255.248 657.436 253.901 657.885 253.002L656.987 253.451C656.538 254.35 656.089 255.248 655.64 256.146L656.089 254.35L654.742 255.697C654.293 256.595 654.293 257.493 653.844 258.391H653.395V257.044C652.497 257.942 652.048 258.391 651.599 259.289C651.15 261.085 650.701 262.881 650.252 264.677C649.803 265.575 649.354 266.474 648.904 267.821V268.27C648.006 272.311 646.659 276.801 645.761 280.843C645.312 282.19 644.863 283.986 644.863 285.333C644.863 285.333 644.863 285.782 644.414 285.782V286.231V286.68C643.965 287.129 643.965 287.578 643.516 288.027V288.476C643.516 288.925 643.067 288.925 643.067 288.925C642.618 288.925 642.618 288.925 642.618 288.476L641.271 285.782C640.822 284.884 639.924 284.435 639.026 283.986C638.128 283.986 637.679 283.537 637.23 283.088C637.23 283.088 637.23 283.088 636.781 283.088C636.781 283.088 636.781 283.088 636.331 283.088C636.331 283.986 635.882 284.884 635.433 285.782L634.086 288.027L632.739 290.721L632.29 291.62V292.069V290.721L629.147 299.702C628.698 299.702 628.698 299.702 628.698 298.804C628.698 297.906 629.147 296.559 629.596 295.212V294.763H629.147C627.8 295.661 627.351 296.559 626.902 298.355L626.453 299.702C626.453 299.702 626.453 299.702 626.004 299.702H625.555C625.555 299.702 625.555 299.253 625.106 299.702C625.106 299.702 625.106 299.702 625.106 300.151C624.657 301.498 624.657 301.498 624.208 303.294L623.309 304.642C622.86 305.54 622.86 306.438 622.86 306.887L622.411 308.683H621.962V308.234V307.785H621.513V308.234C619.717 310.479 618.37 312.724 617.023 315.418C617.023 315.418 617.023 315.418 616.574 315.418H616.125C616.125 315.418 616.125 315.418 616.125 314.969V315.418C617.023 311.826 617.921 308.683 618.37 305.091C618.819 304.193 619.268 303.294 619.268 302.396C619.717 299.702 622.411 292.069 622.411 292.069C624.657 284.884 624.657 282.639 624.208 282.19C623.309 281.741 621.513 283.986 620.615 285.782C615.227 296.11 606.246 304.642 591.877 314.071L590.979 314.52L581.998 318.113C570.323 324.848 558.648 330.686 558.199 331.135C554.158 332.931 550.566 336.074 547.422 339.217C546.973 340.115 546.075 341.013 545.626 342.361V342.81C543.83 345.953 542.483 349.545 540.687 352.688C539.789 354.036 539.789 355.383 538.891 356.73C537.993 358.077 537.095 360.771 536.197 363.016C533.951 367.507 531.706 371.997 529.91 376.487C528.563 379.631 527.665 382.774 526.767 386.366C526.767 386.815 526.318 387.713 525.869 388.162C525.42 390.856 524.522 393.551 523.624 396.245C523.624 396.245 523.624 396.245 523.174 396.245C523.624 394.898 523.623 394 524.073 392.653C525.42 386.815 526.318 380.978 527.665 375.14C528.114 372.895 529.461 370.201 529.91 367.956C530.359 365.71 530.359 363.914 531.257 361.669L532.155 358.975C533.502 356.73 534.4 354.036 535.747 351.79C537.095 349.545 537.993 348.647 538.891 346.851C539.34 345.504 539.789 343.708 540.238 342.361V341.912H539.789C538.891 342.361 537.993 343.259 537.095 344.157C536.197 344.606 535.298 345.504 534.4 345.953L533.502 346.402C529.012 349.545 524.073 352.688 519.133 355.383C515.541 357.179 512.398 359.873 509.254 362.567L508.356 363.465C506.56 364.812 504.764 366.609 503.417 368.405C501.172 371.548 498.927 375.14 497.13 378.732C496.232 380.08 495.783 381.876 494.885 383.223C494.885 383.672 494.885 384.121 494.436 384.57C493.987 385.917 493.089 387.264 493.089 388.611C492.64 389.06 492.64 389.509 492.191 389.958C491.293 393.102 490.395 396.245 489.497 399.837C488.15 407.022 486.803 413.757 485.006 420.942C484.108 424.534 482.761 428.126 481.863 431.719C481.414 433.515 480.516 435.311 479.618 437.107C479.169 438.005 478.72 438.903 478.72 439.801C477.373 442.496 476.026 444.741 474.23 447.435C473.781 448.333 472.882 448.782 472.433 449.68C471.984 450.129 471.086 450.578 471.086 451.027C471.086 451.027 470.637 451.027 470.637 450.578C471.086 448.333 472.882 446.088 473.332 443.843C474.23 439.801 475.577 435.76 476.026 431.719C476.924 425.881 476.475 419.595 476.924 413.757C477.373 403.429 478.271 393.102 480.067 382.774C480.965 378.283 482.312 374.242 484.557 370.201C485.456 368.854 485.455 367.507 486.354 366.159C487.252 364.812 488.15 362.567 489.048 360.771L489.497 360.322V359.424V358.975V358.526C489.497 358.526 489.048 357.628 488.599 357.628C488.15 358.077 488.15 358.526 487.701 358.526H487.252C487.252 358.526 485.006 361.22 484.557 361.669L484.108 362.118V362.567C483.21 363.465 482.312 363.914 481.863 364.812C481.414 365.71 480.067 367.956 479.169 369.303C479.169 369.303 479.169 369.303 478.72 369.303C478.72 369.303 478.72 369.303 478.72 368.854C478.72 368.854 478.72 368.854 478.72 368.405C478.72 367.956 478.72 367.058 479.169 366.609H478.72V367.058C478.271 367.507 478.271 367.507 477.822 367.956C476.475 368.854 474.679 372.446 474.23 373.344C473.781 373.793 473.332 374.691 472.433 375.14L471.086 378.732L470.637 379.182V378.732L472.882 373.793C472.882 373.793 472.882 373.793 472.882 373.344C472.882 373.344 472.882 373.344 472.433 373.344C467.943 374.691 463.453 376.936 459.411 379.631C459.411 379.631 458.962 379.631 459.411 379.182C459.86 378.732 460.309 377.834 460.759 377.385C459.86 377.834 458.962 378.283 458.064 379.182L452.676 382.774C452.227 382.774 452.227 382.774 451.778 382.774C451.329 383.672 450.431 384.121 449.982 385.019C449.533 385.468 449.084 385.917 448.635 385.917C448.185 386.366 447.736 386.366 447.287 386.815L441.899 392.653C439.654 395.347 437.409 398.041 435.612 401.184C434.714 402.531 434.265 403.878 433.816 405.226L433.367 406.124C433.367 406.573 432.918 406.573 432.918 406.573C432.469 406.573 432.469 406.573 432.469 406.573C432.469 406.573 432.02 406.124 432.469 406.124V404.328C432.918 401.633 434.265 399.388 436.062 397.143L436.511 396.245L437.409 394.898V394.449H436.062C435.613 394.449 435.163 394.449 434.714 394.898L432.469 396.245C431.571 396.694 430.673 397.143 430.224 398.041C429.326 399.388 428.428 400.735 427.53 402.082C426.632 403.429 426.632 405.226 425.734 406.573C425.285 407.022 424.836 407.022 424.836 407.471C424.387 407.92 423.938 409.267 423.489 409.716C423.039 410.614 422.141 411.063 421.692 411.512C421.243 412.41 420.794 414.206 419.896 415.104C417.202 420.044 415.855 425.432 415.406 430.821V433.515C415.406 434.413 414.957 435.76 414.957 436.658V457.763V463.151C414.957 463.6 414.957 463.6 414.508 463.6C414.059 463.6 414.059 463.6 414.059 463.151C414.059 460.457 413.161 457.314 412.712 454.62C412.263 452.823 411.814 451.476 411.365 449.231C410.916 445.639 410.017 442.047 409.568 438.454C409.119 436.209 408.67 434.413 408.67 432.168C408.67 423.636 409.119 414.655 410.017 406.124C410.017 404.777 410.017 402.98 410.017 401.633L409.568 399.388V396.245C409.568 394.898 409.568 393.551 409.568 392.204H409.119C408.67 393.102 408.221 394.449 408.221 395.347C407.772 396.694 408.221 397.592 408.221 397.592L407.772 398.041V397.143H407.323C406.874 398.041 406.425 398.49 405.976 399.388V399.837C405.976 400.286 405.527 400.286 405.078 400.735C404.629 401.184 404.18 402.082 403.731 402.98L403.282 403.429C402.833 403.878 402.833 404.328 402.384 404.777H401.935V404.328C402.384 403.429 402.384 402.98 402.833 402.082C402.833 400.735 403.282 399.388 403.731 398.041C403.731 397.592 403.731 396.694 403.731 396.245C402.384 398.041 401.486 400.286 400.588 402.531C400.139 403.429 399.69 403.878 399.241 404.777C398.792 406.124 398.792 407.471 398.343 408.369C397.894 409.267 396.995 409.716 396.546 410.165C396.097 411.063 394.75 412.859 394.301 413.757C391.158 419.146 389.362 424.983 388.464 430.821C388.015 433.066 388.015 435.311 388.015 437.556C388.015 438.454 388.015 438.903 388.015 439.801C388.015 439.352 387.566 438.903 387.566 438.454C387.117 437.107 386.668 435.76 386.219 433.964C385.32 429.474 384.422 425.432 383.973 421.391C383.973 420.942 383.524 420.493 383.075 420.044C382.626 419.146 382.626 418.248 382.626 417.35C382.626 417.35 382.626 416.901 382.177 416.901H381.728C381.728 417.35 381.728 417.799 381.279 418.248H380.83C380.83 418.248 380.83 418.248 380.381 418.248C380.381 418.248 380.381 418.248 379.932 418.248C379.483 419.146 379.034 420.044 379.034 420.942C379.034 421.391 379.034 421.84 379.034 422.289C379.034 422.738 379.034 423.636 378.585 424.085C378.585 424.085 378.585 424.085 378.136 424.085H377.687C377.687 424.534 377.238 424.534 377.238 424.983C376.789 424.085 376.789 423.187 376.34 422.289C376.34 422.289 376.34 421.84 375.891 421.84C375.891 421.84 375.442 421.84 375.442 422.289V424.534V433.066C375.442 438.903 375.891 444.741 375.891 450.578C375.891 454.62 376.789 458.212 377.238 461.804C377.687 465.845 378.136 467.642 378.136 470.785C378.136 472.132 378.136 473.03 378.585 474.377C378.136 473.03 377.687 471.683 377.238 470.336L374.095 461.355C373.197 460.008 372.747 458.212 372.298 456.416C371.849 455.069 370.951 453.721 370.951 452.823L370.053 451.027C369.155 449.231 368.706 447.884 368.257 446.088L366.91 443.394C366.461 440.25 364.216 438.005 363.767 434.862C363.318 433.066 362.42 431.719 361.522 429.923C360.624 428.126 359.725 426.33 358.827 424.534C358.378 424.085 358.378 423.187 357.48 422.289L356.582 421.84C356.582 421.391 356.133 421.391 356.133 421.391C355.684 421.391 355.684 421.84 355.684 421.84C355.684 422.738 355.684 424.085 355.684 424.983V425.432V425.881V431.719C355.684 431.719 355.684 432.168 355.235 432.168C355.235 432.168 354.786 432.168 354.786 431.719L354.337 430.821C354.337 430.821 354.337 430.821 353.888 430.821H353.439C352.99 432.617 352.99 433.964 352.99 435.76C352.541 437.107 352.541 438.454 352.092 439.352C352.092 442.047 352.541 444.741 353.439 447.435C353.439 448.333 353.888 449.231 354.337 449.68C354.786 452.374 356.133 455.518 356.582 458.212L357.48 460.906C357.929 462.702 358.827 464.049 359.276 465.845C359.725 467.642 360.624 468.54 360.624 469.887C361.073 471.234 361.522 472.132 361.971 473.03C361.971 474.377 362.869 475.275 363.318 476.173C363.767 477.969 364.665 479.766 365.114 481.562V482.011C365.114 482.011 365.114 482.011 364.665 482.011C363.767 482.46 362.869 480.664 361.971 479.766C359.725 477.52 357.48 474.826 354.786 472.581C352.092 469.887 349.398 467.642 346.703 465.845L343.56 464.498H343.111C342.213 464.049 341.315 463.151 340.417 462.253L338.621 461.804C337.274 460.906 335.927 459.559 334.579 459.11H333.232C332.783 459.11 330.987 458.212 330.089 458.212C329.64 458.212 329.64 458.212 329.191 458.212C328.742 458.212 328.742 458.212 328.742 458.661V459.11C328.742 460.906 330.089 460.906 330.987 461.804C332.334 462.702 331.436 462.702 331.885 462.702C331.885 462.702 331.436 462.702 331.436 463.151V463.6C334.13 467.193 337.723 469.438 340.417 472.581C341.764 473.928 342.662 475.275 343.56 476.622L345.356 480.215L347.152 482.909C347.601 483.807 347.152 484.256 347.152 484.705C347.152 485.154 347.601 485.603 348.051 486.052C346.703 486.501 345.356 486.501 344.458 486.95C342.662 487.399 340.417 488.297 338.621 488.297C335.028 488.746 331.885 490.093 328.293 490.991C326.048 491.44 324.701 492.339 322.455 492.788C315.72 494.135 308.535 496.38 301.8 497.727C300.902 497.727 300.453 498.176 299.106 498.625C295.064 499.523 291.023 500.87 286.982 501.768C282.94 502.217 279.348 503.564 275.756 504.463C266.326 505.81 257.345 508.953 247.916 510.749C247.017 510.749 246.568 511.198 246.119 511.198C242.527 511.647 238.935 512.994 235.343 513.443L232.199 514.341C226.811 515.239 220.524 517.934 215.136 518.832C212.891 519.281 210.646 520.179 208.849 520.628L206.155 521.526C202.563 522.424 201.216 524.22 201.216 526.914C202.114 532.303 207.053 530.507 210.197 530.058C216.034 529.609 222.321 528.261 228.158 527.363C231.301 526.914 233.546 526.016 236.69 525.567C244.772 524.22 252.855 521.975 260.938 520.628C264.081 520.179 266.775 518.832 269.918 518.383L272.613 517.485C275.756 517.036 279.348 515.688 282.491 515.239L286.533 514.341C291.023 513.443 295.513 512.096 300.004 511.198L304.494 509.851C309.433 508.953 314.373 507.157 319.761 506.259L325.15 504.912C332.334 503.564 339.519 500.421 346.703 499.523C350.296 498.176 353.439 497.727 357.031 496.829C357.48 496.829 357.929 497.278 357.929 497.278V497.727H358.378H358.827C358.827 497.727 359.276 499.523 359.725 499.523V498.625C359.725 498.176 359.725 497.727 359.725 497.278H360.174H360.624C361.073 498.176 361.522 499.074 361.971 499.972C361.971 500.421 362.42 500.421 362.42 500.87C362.42 499.523 362.42 498.176 361.971 496.829C361.971 496.829 361.971 496.38 362.42 496.38H362.869C362.869 496.829 363.318 496.829 363.318 497.278L364.216 499.972C364.665 501.768 365.114 504.013 365.114 505.81C365.563 507.606 366.012 506.708 366.012 508.055C366.012 508.953 366.012 510.3 366.012 511.198C366.012 512.096 366.012 512.545 366.012 513.443L366.461 512.994H366.91V513.443C366.91 514.341 367.359 515.688 366.91 517.036H367.359C367.808 516.586 367.808 515.688 368.257 515.239C368.706 516.586 368.706 517.485 368.706 518.832C368.706 518.832 368.706 519.281 369.155 518.832C369.604 518.383 370.053 517.485 370.053 517.036C370.053 517.485 370.502 517.485 370.502 517.485C370.951 517.485 371.4 515.688 371.849 515.239H372.298C373.197 513.443 373.646 511.198 374.095 509.402C374.095 508.953 374.095 508.953 374.095 508.504C374.095 508.055 374.095 508.055 374.095 507.606V507.157C374.095 506.708 374.544 506.259 374.544 505.81C374.544 505.361 374.993 504.463 375.442 504.013C375.891 500.421 376.34 496.829 375.442 493.237V492.788H375.891C376.34 493.686 376.789 494.584 377.238 495.482C378.585 497.727 379.483 499.972 381.279 501.768C383.524 504.912 385.77 508.055 388.015 510.749C388.913 511.647 389.362 512.994 390.26 514.341L391.158 516.137C392.954 518.383 393.852 521.526 395.648 524.22L396.995 526.465C397.893 527.812 399.241 529.159 400.139 530.058H400.588H401.037C401.037 530.058 401.037 530.058 401.037 529.609C401.037 529.609 401.037 529.609 401.037 529.159C401.486 529.609 401.935 530.507 402.384 530.956C403.282 531.405 403.731 532.303 404.629 532.303C404.629 532.752 405.078 532.752 405.527 532.752C405.976 532.752 405.976 532.303 405.976 531.854C405.078 529.609 404.18 527.812 403.282 525.567C403.282 525.118 402.833 524.669 402.833 524.669C402.384 523.771 401.935 522.424 401.935 521.526C401.486 519.73 399.69 517.934 399.241 516.586C398.792 513.892 397.893 511.647 396.546 509.402C396.097 508.953 396.097 508.055 395.648 507.157C395.648 506.708 395.199 506.708 395.648 507.157C395.648 507.606 396.546 508.055 396.995 508.055C397.444 508.055 398.343 508.504 398.792 508.504H399.241V508.055C398.343 507.606 397.893 507.157 396.995 506.708C396.546 506.259 394.75 504.912 394.301 504.013C394.301 503.564 393.852 503.115 393.852 502.666L393.403 501.768L394.301 502.666C396.995 504.912 399.69 506.708 402.384 508.504C403.282 508.953 406.425 511.198 407.323 509.851C407.772 510.3 409.119 510.3 409.568 509.851C410.017 510.3 410.916 510.3 411.365 510.3C412.263 510.749 412.263 510.749 412.712 511.198H413.161C413.61 511.198 414.059 511.198 414.059 510.749C414.059 510.3 414.059 509.851 413.61 509.851C412.263 508.953 410.467 508.504 409.119 507.606C408.67 507.606 408.67 507.157 408.67 507.157L408.221 506.708C408.221 506.708 408.221 506.259 408.67 506.259H409.119H409.568C410.916 506.708 411.814 507.157 412.712 508.055C414.957 509.402 416.753 509.851 419.447 510.3C422.141 510.3 424.836 509.851 427.53 508.953C427.979 508.953 428.428 508.504 428.877 508.504C429.775 508.055 430.673 507.606 431.571 507.157C432.469 507.157 432.02 505.81 431.122 506.259C427.979 506.259 424.836 505.361 422.141 503.564L420.794 502.666L418.1 499.523L413.61 495.033C412.263 493.237 410.467 490.991 409.119 488.746C408.67 487.848 408.221 487.399 407.772 486.501H408.221C410.466 489.195 412.712 491.89 415.406 494.584L416.753 495.931L421.243 499.972C432.02 507.606 453.125 503.564 453.125 503.564C453.125 503.564 461.657 502.217 462.106 502.217H462.555H463.453C463.902 502.217 463.902 501.768 463.902 501.768C463.902 501.319 463.902 501.319 463.453 501.319L462.555 500.87C460.758 500.421 459.411 499.972 458.064 499.523L455.819 498.625C449.982 495.931 444.593 492.788 439.654 488.297C437.409 486.501 435.612 483.807 433.367 481.562L432.469 480.664C432.469 480.664 432.469 480.215 432.918 480.215L438.307 485.603C444.144 491.89 451.329 495.931 459.86 498.625C461.208 499.074 464.351 499.972 467.045 500.87C468.392 501.319 469.29 501.319 470.637 500.87C471.984 500.87 472.882 500.87 474.23 500.87L476.026 500.421H476.475V499.972C476.924 499.074 477.822 498.625 478.72 498.625C480.516 498.176 482.761 498.176 485.006 498.176H486.354C486.803 498.176 486.803 497.727 486.354 497.727C487.252 497.727 488.599 497.727 489.497 497.727H491.293C492.191 497.727 493.538 497.727 494.436 497.727C494.885 497.727 495.334 497.278 495.334 497.278H495.783C495.783 497.278 495.783 497.278 495.783 496.829V496.38C494.885 496.38 493.987 496.38 493.089 495.931H490.844C488.599 495.482 486.803 495.033 484.557 494.584C480.965 493.686 477.373 492.788 474.23 491.44L471.535 490.542C470.188 489.644 468.841 489.195 467.494 488.297C464.8 486.95 462.555 485.154 460.309 483.358L459.86 482.909C459.86 482.46 459.86 482.46 459.86 482.011H460.309H460.759L463.902 484.256C468.841 486.95 474.23 488.746 480.067 489.644C482.761 490.542 485.455 490.991 488.15 491.89C490.395 492.339 492.64 492.339 494.436 491.89C495.334 491.89 496.681 491.44 497.579 491.44C498.028 491.44 498.478 491.44 498.927 490.991H499.376V490.542V490.093C500.723 489.644 502.519 489.195 503.866 488.746C504.764 487.848 505.662 486.95 507.009 486.501C507.907 486.501 508.805 486.052 509.703 485.603H510.601H511.051L513.296 484.705C513.296 484.705 513.296 484.705 513.296 484.256C513.296 483.807 513.296 483.807 513.296 483.807L511.051 482.909H510.601L509.703 483.358C507.009 483.358 504.315 483.358 501.621 482.011L499.825 481.562L498.477 481.113L493.538 478.418C490.844 477.071 488.599 475.724 487.252 475.275V474.826V474.377H487.701C493.538 477.071 499.376 479.316 506.111 480.215L513.296 482.011C513.296 482.011 518.684 482.909 525.869 485.154C530.808 486.501 535.298 488.297 539.789 490.093C540.687 490.542 542.034 490.991 542.932 490.991L544.728 491.44V490.991C543.83 490.542 542.932 490.093 542.483 489.644C542.034 489.195 542.034 489.195 541.585 488.746C541.136 488.746 541.136 488.297 541.136 488.297C541.136 488.297 540.238 488.297 540.238 487.848L539.789 487.399L539.34 486.95L538.442 486.501L537.095 485.603H537.544C537.993 486.052 538.891 486.052 539.34 486.501C540.687 486.95 542.034 487.399 543.381 487.848H544.728C543.83 487.399 542.932 487.399 542.483 486.95C542.034 486.95 541.585 486.501 541.136 486.052L536.646 484.256C529.461 481.562 521.827 478.418 515.092 474.826C509.254 470.785 503.866 466.294 498.927 461.355L497.579 460.457L497.13 460.008C497.13 459.559 497.13 459.559 497.579 459.11L498.029 458.661C498.478 458.661 498.478 458.661 498.927 459.11C504.315 462.702 509.254 466.744 514.643 469.887C516.888 471.234 519.133 471.683 520.929 472.581C525.869 474.826 530.359 476.173 535.747 477.52C536.646 477.52 537.544 477.969 538.891 477.969C539.34 477.969 540.238 477.52 540.687 477.969H541.136L544.279 476.173L547.871 473.928L548.769 473.03L548.32 472.581C550.117 472.581 551.464 472.132 552.811 471.234V470.785L552.362 470.336C551.015 470.336 550.117 470.336 548.769 469.887C547.871 469.887 546.973 469.438 546.075 468.989L543.381 468.091C536.646 465.845 530.359 462.702 524.522 458.212C523.174 457.314 522.276 456.416 521.378 455.518C521.378 455.518 521.378 455.518 521.378 455.069C521.378 455.069 521.378 455.069 521.827 455.069C523.174 455.967 524.522 456.865 525.869 457.763C529.461 460.008 533.053 461.355 536.646 463.6C537.544 464.049 539.34 464.498 540.238 464.947L541.136 465.396C543.83 466.294 546.973 467.193 549.668 467.193C552.811 467.193 555.505 467.193 558.648 466.294C560.444 464.947 562.69 464.049 564.935 463.6C566.731 463.151 568.078 462.702 569.874 462.702L571.67 460.906H572.119H578.855L578.406 460.457C578.406 460.008 577.957 460.008 578.406 459.559C578.406 459.11 578.855 459.11 578.855 458.661L579.753 457.763H580.202C580.651 457.763 581.1 457.314 581.549 457.314C582.896 457.314 586.039 455.967 587.387 455.967C588.734 455.967 595.02 452.823 595.918 452.823C597.714 452.374 599.062 451.925 600.858 451.476L602.205 451.027C603.103 451.027 604.001 450.578 604.899 450.129C605.348 450.129 605.348 449.68 605.348 449.68C605.348 449.231 605.348 449.231 605.348 448.782L604.899 448.333H603.103V447.884C604.001 447.435 605.348 446.986 606.246 446.986C607.144 446.986 608.042 445.639 608.94 445.639L610.287 445.19H609.389L610.736 444.292L614.329 442.945L618.819 440.699L622.411 438.454L629.147 433.515L630.943 432.168L638.577 426.33C639.026 426.33 639.026 425.881 639.475 425.881C641.72 424.534 643.965 424.085 646.21 423.636C646.659 423.636 647.108 423.187 647.108 423.187C647.557 423.187 648.455 423.187 648.904 423.187C649.354 423.187 650.252 423.187 650.701 423.187L652.497 423.636H653.395H654.742H656.089C656.987 423.636 657.436 423.187 658.334 423.187C658.783 423.187 658.783 422.738 659.232 422.738L659.681 422.289L661.478 420.493L662.825 417.799L663.274 417.35C663.723 416.901 664.172 416.901 664.172 416.451L664.621 416.002C665.07 415.553 665.519 415.553 666.417 415.553C666.866 415.553 667.315 416.002 667.764 416.451C668.213 416.901 668.213 416.451 668.213 416.002C667.764 415.553 667.315 414.655 666.417 414.655C665.968 414.206 665.07 414.206 664.172 414.206H659.681H659.232V413.757C659.232 413.308 659.232 413.308 659.681 413.308H660.579L662.825 412.859C665.519 412.41 667.764 411.512 669.56 409.716L670.009 409.267L674.051 404.777L677.194 400.735C677.194 400.286 677.194 400.286 677.643 400.286C678.99 398.939 680.337 397.592 681.684 395.796C682.582 395.347 683.48 394.898 683.929 394.898C684.378 394.898 684.827 394.449 684.827 394C686.174 392.653 687.522 391.755 688.869 390.856L690.216 389.958C690.665 389.958 690.665 389.509 691.114 389.509C692.461 388.611 694.257 387.713 695.604 386.815L696.502 386.366C696.951 385.917 697.4 385.917 697.849 385.917C700.095 385.468 702.34 385.468 704.585 385.917L708.177 386.815H708.626C709.524 387.264 710.422 387.713 711.321 387.713H711.769C712.219 387.713 712.219 387.713 712.668 387.713H713.566H714.015C714.913 387.264 713.117 386.366 712.668 386.366L710.871 385.468L705.483 383.223C705.483 383.223 705.034 382.774 705.034 382.325C705.034 381.876 705.034 381.876 705.034 381.427C705.034 380.978 705.483 380.978 705.483 380.978C705.483 380.978 705.932 380.529 706.381 380.529C707.728 380.08 709.075 380.08 710.422 379.631C710.871 379.631 710.871 379.182 710.871 379.182C710.871 378.732 710.871 378.732 710.871 378.283C710.871 377.834 710.422 377.834 709.973 377.834H710.871C710.871 377.834 709.973 377.834 709.973 377.385C709.973 376.936 710.422 376.487 710.422 376.487H710.871L712.219 376.038H712.668C715.362 375.14 718.056 374.242 720.301 372.895L726.588 368.405L727.486 367.507L728.384 366.609L756.224 346.402L757.122 345.953C757.122 345.953 757.571 345.953 757.571 345.504V345.055H757.122H756.224C756.224 345.055 755.775 345.055 755.775 344.606V344.157C756.224 343.708 756.673 343.259 757.122 343.259L761.612 340.115L766.103 337.87L767.45 336.972H767.899L770.144 335.625L774.635 332.482H775.084L777.778 330.237L778.227 329.788V329.339H777.778C777.778 329.339 778.676 328.89 778.227 328.89C778.227 328.89 777.778 328.89 777.778 328.44C777.778 328.44 777.778 327.991 778.227 327.991L779.574 327.542H780.023L781.37 327.093H780.023C781.819 326.644 783.166 325.746 784.513 324.848V324.399C785.86 323.501 786.758 322.154 788.106 320.807L789.004 319.011V318.562C789.004 318.562 789.004 318.562 789.004 318.113C788.555 318.113 787.657 318.113 787.208 318.113H788.106C789.004 317.664 790.351 317.215 790.8 316.317C790.8 316.317 792.147 314.52 790.8 314.52H789.902H789.453C790.351 314.071 790.8 313.622 791.249 313.173C790.8 313.173 790.8 313.173 790.351 313.622C791.249 312.724 791.698 311.826 792.596 310.928V310.479H791.698C791.698 310.03 792.147 309.581 792.596 309.132H792.147L792.596 308.683C793.045 307.785 793.494 307.336 794.841 306.887C796.188 306.887 797.086 306.438 797.984 305.54C797.984 305.54 797.984 305.54 798.433 305.091V304.642C798.882 303.743 799.331 302.845 799.331 301.947C799.331 303.743 798.882 302.845 798.433 301.947Z" fill="white"/>
</g>
</svg>
