<svg width="1000" height="1000" viewBox="0 0 1000 1000" fill="none" xmlns="http://www.w3.org/2000/svg">
<rect width="1000" height="1000" fill="white"/>
<path d="M580.37 461.323C589.352 442.071 591.119 420.242 585.349 399.8C579.579 379.359 566.655 361.661 548.926 349.922C563.171 335.309 578.598 320.827 594.878 307C575.884 318.272 557.857 331.094 540.982 345.335C522.664 335.8 501.591 332.932 481.385 337.225C461.179 341.517 443.101 352.701 430.26 368.854C417.418 385.008 410.614 405.123 411.017 425.741C411.42 446.359 419.005 466.193 432.469 481.834C415.466 518.597 412.775 548.085 427.48 558.046C443.563 568.727 478.487 549.33 499.691 517.81C499.691 517.81 467.261 546.971 449.471 540.287C438.508 536.159 438.508 519.383 447.502 495.399C464.542 507.878 485.478 513.888 506.556 512.35C527.633 510.813 547.472 501.83 562.514 487.011L565.665 492.909C604.397 489.763 720 486.683 720 486.683C719.737 481.244 643.194 486.487 580.37 461.323ZM421.637 423.906C421.651 410.844 424.946 397.995 431.22 386.533C437.494 375.072 446.547 365.363 457.551 358.297C468.555 351.23 481.159 347.031 494.209 346.083C507.259 345.135 520.338 347.469 532.251 352.871C493.878 386.376 461.838 426.483 437.655 471.284C427.233 457.684 421.602 441.029 421.637 423.906ZM499.822 501.952C482.269 501.985 465.22 496.097 451.441 485.242C466.933 450.38 498.443 403.591 541.442 357.851C557.593 368.004 569.467 383.703 574.824 401.991C580.181 420.278 578.651 439.89 570.523 457.129C556.952 451.049 544.416 442.891 533.367 432.949L556.934 477.116C549.638 484.954 540.8 491.206 530.973 495.479C521.146 499.753 510.541 501.956 499.822 501.952Z" fill="#0033A1"/>
<path fill-rule="evenodd" clip-rule="evenodd" d="M224.311 645.31C234.003 643.071 242.595 637.489 248.571 629.545L258.165 616.885C259.551 615.061 260.397 612.886 260.609 610.607C260.822 608.328 260.39 606.035 259.365 603.987C258.339 601.94 256.76 600.22 254.806 599.021C252.852 597.823 250.601 597.195 248.308 597.207H146.325L77 689.038H182.532C189.107 689.05 195.594 687.534 201.48 684.607C207.366 681.681 212.487 677.426 216.438 672.18L226.229 659.062C227.522 657.365 228.215 655.289 228.201 653.158C228.198 651.615 227.834 650.094 227.138 648.716C226.465 647.382 225.498 646.218 224.311 645.31ZM171.229 665.555L177.472 657.291L177.275 657.356C177.701 656.813 177.932 656.144 177.932 655.454C177.932 654.601 177.593 653.784 176.989 653.181C176.385 652.578 175.566 652.24 174.712 652.24H154.999L141.857 669.95H162.424C164.133 669.953 165.819 669.557 167.348 668.794C168.877 668.031 170.206 666.922 171.229 665.555ZM199.091 628.626L204.413 621.608C204.823 621.056 205.052 620.392 205.07 619.706C205.07 619.283 204.987 618.865 204.825 618.476C204.663 618.086 204.426 617.731 204.127 617.433C203.828 617.134 203.473 616.898 203.083 616.736C202.692 616.575 202.273 616.491 201.851 616.491H182.137L169.718 632.955H190.285C191.988 632.961 193.669 632.572 195.197 631.821C196.724 631.07 198.057 629.977 199.091 628.626ZM413.713 609.473C413.713 606.22 412.417 603.1 410.109 600.799C407.801 598.499 404.671 597.207 401.408 597.207H320.47C313.886 597.194 307.389 598.711 301.495 601.637C295.601 604.563 290.472 608.818 286.516 614.064L244.731 669.36C243.369 671.19 242.542 673.361 242.343 675.631C242.143 677.902 242.579 680.183 243.602 682.221C244.624 684.26 246.193 685.976 248.135 687.179C250.077 688.382 252.315 689.026 254.601 689.038H335.539C342.123 689.051 348.62 687.534 354.514 684.607C360.408 681.681 365.537 677.426 369.493 672.18L411.278 616.885C412.882 614.746 413.737 612.143 413.713 609.473ZM357.451 621.476L324.55 665.359C323.529 666.729 322.198 667.84 320.667 668.604C319.135 669.367 317.445 669.761 315.732 669.753H301.19C300.596 669.747 300.016 669.578 299.513 669.265C299.01 668.951 298.604 668.506 298.338 667.977C298.073 667.448 297.959 666.856 298.01 666.267C298.06 665.678 298.272 665.114 298.623 664.637L331.525 620.689C332.557 619.33 333.889 618.227 335.419 617.465C336.948 616.703 338.633 616.302 340.343 616.295H354.622C355.477 616.295 356.297 616.633 356.902 617.236C357.507 617.839 357.846 618.656 357.846 619.509C357.828 620.195 357.598 620.859 357.188 621.411L357.451 621.476ZM527.795 632.89L513.488 652.109H463.482L450.281 669.819H500.223L485.917 689.038H386.164L454.768 597.207H554.521L540.15 616.426H490.143L477.853 632.89H527.795ZM514.728 689.038L583.929 597.207H634.108L564.972 689.038H514.728ZM750.769 597.207L715.529 643.778L704.727 597.207H665.337L595.845 689.038H629.175L664.086 642.926L674.822 689.038H714.607L784.099 597.207H750.769ZM834.205 597.338H914.605L914.148 597.207C916.429 597.195 918.668 597.822 920.612 599.018C922.555 600.213 924.126 601.93 925.146 603.973C926.167 606.016 926.595 608.304 926.384 610.578C926.173 612.853 925.331 615.023 923.953 616.843L915.128 628.624H865.188L870.548 621.49C870.956 620.94 871.184 620.277 871.202 619.592C871.202 619.171 871.119 618.754 870.958 618.365C870.797 617.975 870.561 617.622 870.264 617.324C869.966 617.026 869.613 616.79 869.225 616.629C868.836 616.468 868.42 616.385 867.999 616.385H853.815C852.113 616.377 850.434 616.77 848.913 617.532C847.391 618.293 846.07 619.403 845.055 620.77L812.372 664.624C811.944 665.163 811.713 665.833 811.719 666.522C811.719 667.372 812.056 668.188 812.657 668.79C813.257 669.391 814.072 669.729 814.922 669.729H829.106C830.806 669.732 832.484 669.336 834.004 668.575C835.525 667.814 836.847 666.707 837.865 665.344L857.475 639.49H919.05L904.539 659.126H892.904L882.903 672.216C878.972 677.451 873.877 681.697 868.023 684.617C862.168 687.537 855.714 689.05 849.173 689.038H768.773C765.525 689.02 762.416 687.716 760.126 685.411C757.835 683.105 756.549 679.985 756.549 676.733C756.54 674.06 757.413 671.46 759.033 669.336L800.541 614.159C804.461 608.929 809.545 604.686 815.388 601.766C821.232 598.847 827.674 597.33 834.205 597.338Z" fill="#0033A1"/>
</svg>
