<svg width="1000" height="1000" viewBox="0 0 1000 1000" fill="none" xmlns="http://www.w3.org/2000/svg">
<rect width="1000" height="1000" fill="#005386"/>
<path fill-rule="evenodd" clip-rule="evenodd" d="M715.08 649.532C745.286 649.532 756.926 639.21 761.704 615.365L768.865 578.223C769.343 575.738 767.854 574.985 765.961 574.985H751.355L747.341 596.356L745.043 607.73L743.128 617.615C740.453 631.074 731.729 637.139 716.933 637.139C700.657 637.139 696.301 631.223 698.848 617.615C698.848 617.615 699.476 614.214 699.69 613.194L703.058 596.356L707.082 574.985H692.467C690.576 574.985 688.795 575.738 688.313 578.223L681.133 615.365C676.231 641.559 689.283 649.532 715.08 649.532ZM201.993 689.818C199.807 700.076 207.847 705.035 224.179 715.157C242.029 726.217 246.113 727.062 244.469 732.893C243.152 737.589 238.468 737.785 230.427 737.785H198.616C195.005 737.785 192.905 739.268 192.277 742.492L191 749H231.106C249.467 749 260.97 747.863 265.149 736.667C267.176 731.202 267.155 725.557 262.202 719.976C259.679 717.134 255.955 714.642 250.819 711.749C227.893 698.813 221.908 697.316 223.357 691.048C224.176 687.524 226.614 687.395 235.235 687.395H262.124C265.752 687.395 267.852 685.912 268.48 682.69L269.804 675.894H235.776C216.503 675.894 204.928 676.005 201.993 689.818ZM378.865 689.818C376.69 700.076 384.727 705.035 401.046 715.157C418.919 726.217 422.997 727.062 421.341 732.893C420.018 737.589 415.337 737.785 407.299 737.785H375.497C371.882 737.785 369.779 739.268 369.151 742.492L367.888 749H407.99C426.349 749 437.847 747.863 442.017 736.667C444.069 731.202 444.045 725.557 439.091 719.976C436.553 717.134 432.839 714.642 427.687 711.749C404.772 698.813 398.792 697.316 400.237 691.048C401.046 687.524 403.486 687.395 412.113 687.395H439.017C442.626 687.395 444.732 685.912 445.353 682.69L446.688 675.894H412.655C393.379 675.894 381.81 676.005 378.865 689.818ZM827.119 689.818C824.947 700.076 832.985 705.035 849.288 715.157C867.162 726.217 871.246 727.062 869.583 732.893C868.276 737.589 863.593 737.785 855.56 737.785H823.748C820.131 737.785 818.031 739.268 817.401 742.492L816.138 749H856.248C874.594 749 886.095 747.863 890.273 736.667C892.314 731.202 892.29 725.557 887.333 719.976C884.811 717.134 881.081 714.642 875.937 711.749C853.026 698.813 847.03 697.316 848.49 691.048C849.288 687.524 851.747 687.395 860.37 687.395H887.27C890.878 687.395 892.976 685.912 893.606 682.69L894.939 675.894H860.914C841.634 675.894 830.064 676.005 827.119 689.818ZM562.439 635.567C564.471 630.097 564.453 624.446 559.492 618.877C556.966 616.03 553.249 613.545 548.096 610.629C525.178 597.693 519.197 596.215 520.637 589.945C521.452 586.432 523.901 586.285 532.533 586.285H559.415C563.039 586.285 565.141 584.805 565.772 581.593L567.091 574.762H533.061C513.785 574.762 502.217 574.874 499.263 588.712C497.096 598.958 505.135 603.931 521.452 614.055C539.313 625.113 543.388 625.953 541.756 631.798C540.425 636.494 535.748 636.68 527.718 636.68H495.912C492.288 636.68 490.183 638.164 489.555 641.387L488.298 647.907H528.399C546.747 647.907 558.264 646.774 562.439 635.567ZM476.989 635.567C479.017 630.097 478.999 624.446 474.054 618.877C471.518 616.03 467.796 613.545 462.653 610.629C439.721 597.693 433.748 596.215 435.201 589.945C436.006 586.432 438.44 586.285 447.088 586.285H473.963C477.589 586.285 479.692 584.805 480.31 581.593L481.653 574.762H447.613C428.336 574.762 416.77 574.874 413.83 588.712C411.648 598.958 419.694 603.931 436.006 614.055C453.862 625.113 457.948 625.953 456.308 631.798C454.997 636.494 450.307 636.68 442.257 636.68H410.471C406.841 636.68 404.749 638.164 404.107 641.387L402.844 647.907H442.957C461.31 647.907 472.811 646.774 476.989 635.567ZM850.019 574.985C846.397 574.985 844.355 576.219 843.815 578.945L842.378 586.306H871.137L859.149 647.908H872.046C875.671 647.908 877.783 646.424 878.499 642.72L889.496 586.306H913.494C916.898 586.306 918.09 584.806 918.679 581.836L920 574.985H850.019ZM223.432 595.26C221.623 595.26 220.257 596.491 220.018 597.729L210.236 647.906H253.501C277.731 647.906 294.525 638.921 299.768 610.978C303.676 590.181 294.648 574.984 269.962 574.984H217.64C217.64 574.984 217.527 575.499 217.424 575.928C216.244 580.833 216.865 586.247 225.135 586.247H263.168C281.465 586.247 284.081 595.383 280.424 611.472C276.833 627.269 270.572 635.403 256.838 636.647H230.785L238.831 595.258L223.432 595.26ZM839.771 641.082C840.393 637.889 839.27 636.649 836.337 636.649H797.153L808.687 577.455C808.917 576.22 808.022 574.985 806.448 574.985H790.817L776.621 647.908H838.435L839.771 641.082ZM723.101 676.096H706.556L674.526 704.514L653.57 676.096H637.037C634.323 676.096 632.83 677.816 632.267 680.786L618.98 749H633.023C635.97 749 637.614 747.524 638.142 744.803L648.093 693.749L664.233 716.736C664.708 717.715 666.059 718.957 668.087 718.957H675.35C677.389 718.957 679.204 717.715 680.078 716.736L705.16 693.749L695.209 744.803C694.682 747.525 695.751 749 698.708 749H712.738L726.041 680.786C726.602 677.815 725.822 676.096 723.101 676.096ZM548.113 680.786L534.836 749H602.316L603.737 741.71C604.326 738.731 603.597 737.744 600.198 737.744H555.372L559.178 718.178H598.806C599.942 718.178 600.758 717.443 600.96 716.442L602.472 708.68C602.656 707.701 602.121 706.949 600.996 706.949H561.357L565.169 687.413H608.425C610.463 687.413 612.491 687.414 613.04 684.691L614.696 676.093H553.782C550.614 676.093 548.736 677.56 548.113 680.786ZM748.485 680.786L735.203 749H802.703L804.106 741.71C804.691 738.731 803.975 737.744 800.584 737.744H755.745L759.557 718.178H799.181C800.317 718.178 801.144 717.443 801.323 716.442L802.845 708.68C803.038 707.701 802.483 706.949 801.372 706.949H761.737L765.537 687.413H808.797C810.844 687.413 812.868 687.414 813.394 684.691L815.069 676.093H754.16C750.983 676.093 749.125 677.56 748.485 680.786ZM343.751 678.554L337.271 711.748C325.955 715.22 296.633 721.568 301.212 698.09L305.499 676.095H290.087C288.271 676.095 286.9 677.311 286.658 678.554L282.769 698.581C275.354 736.649 311.466 731.449 334.838 724.293L330.025 749H342.921C346.552 749 348.65 747.524 349.383 743.823L362.552 676.096H346.936C345.354 676.096 343.981 677.311 343.751 678.554ZM536.531 682.933L537.876 676.099H467.902C464.278 676.099 462.224 677.322 461.693 680.043L460.253 687.394H489.006L477.026 748.999H489.927C493.544 748.999 495.637 747.524 496.384 743.823L507.362 687.394H531.367C534.763 687.394 535.957 685.911 536.531 682.933ZM335.285 605.635C338.027 591.43 346.324 586.286 361.129 586.286C376.772 586.286 380.875 592.146 378.33 605.635C378.33 605.635 377.688 609.006 377.469 610.022C377.164 611.532 376.469 615.451 372.413 615.451H333.38L335.285 605.635ZM313.247 647.907H327.055L331.077 626.705H374.104L370.089 647.907H383.903C385.72 647.907 387.446 647.163 387.921 644.689L395.106 607.867C400.374 579.932 384.576 574 363.281 574C337.768 574 323.205 580.394 317.644 607.867L310.472 644.689C309.995 647.163 311.428 647.907 313.247 647.907ZM603.661 605.635C606.412 591.43 614.696 586.286 629.501 586.286C645.151 586.286 649.244 592.146 646.707 605.635C646.707 605.635 646.071 609.006 645.841 610.022C645.535 611.532 644.841 615.451 640.792 615.451H601.749L603.661 605.635ZM581.622 647.907H595.434L599.464 626.705H642.48L638.459 647.907H652.28C654.094 647.907 655.825 647.163 656.302 644.689L663.471 607.867C668.762 579.932 652.957 574 631.66 574C606.14 574 591.577 580.394 586.013 607.867L578.844 644.689C578.374 647.163 579.796 647.907 581.622 647.907Z" fill="white"/>
<path fill-rule="evenodd" clip-rule="evenodd" d="M231.488 252.174C259.238 250.863 292.075 256.773 298.191 276.351C308.219 308.44 257.397 355.229 213.111 378.195C202.256 383.826 195.676 385.371 192.935 384.986C190.317 384.61 189.914 382.015 190.763 380.217C192.343 376.846 199.48 369.968 209.044 362.498C258.895 323.567 275.104 295.009 265.693 283.431C259.656 276.021 234.383 270.87 208.142 270.87C207.099 270.87 205.808 270.905 204.357 270.945C195.896 271.177 182.015 271.558 180.374 265.928C178.807 260.525 203.936 253.476 231.488 252.174ZM172.786 399.302C196.58 397.912 225.485 402.066 241.719 414.487C249.79 420.654 255.467 432.01 252.18 445.028C242.81 481.975 207.837 526.672 130.125 561.02C105.414 571.943 85.9846 576.122 81.906 573.192C78.0649 570.43 87.3747 551.37 92.3179 541.249L92.3188 541.247C93.0166 539.819 93.6273 538.569 94.1017 537.567C106.509 511.36 122.008 485.841 137.117 462.48C137.648 461.659 138.207 460.781 138.791 459.865C144.317 451.182 152.016 439.086 159.054 440.165C166.018 441.234 157.861 457.081 152.494 467.159C143.478 484.066 118.646 531.04 126.838 533.845C144.948 540.056 229.919 475.424 217.39 439.428C211.582 422.722 174.689 421.131 151.454 421.131C149.617 421.131 147.403 421.207 144.99 421.289C133.521 421.679 117.581 422.222 116.526 415.537C115.147 408.071 151.594 400.555 172.786 399.302ZM357.349 359.865L356.559 359.722C331.491 355.189 286.643 353.407 271.312 379.401C259.999 398.587 279.906 424.538 299.473 450.045C300.395 451.246 301.315 452.446 302.232 453.645C303.972 455.92 305.729 458.185 307.471 460.43C322.07 479.25 335.577 496.663 329.085 507.304C323.989 515.679 295.143 516.831 278.858 517.481C276.217 517.587 273.907 517.679 272.081 517.787C267.716 518.046 262.825 518.239 257.942 518.431C245.043 518.939 232.207 519.444 229.306 521.176C225.715 523.314 223.716 529.961 237.171 532.616C247.971 534.761 273.685 539.115 300.828 539.09C329.163 539.087 358.923 533.952 365.382 509.682C370.062 492.089 355.86 473.351 341.416 454.294C339.862 452.244 338.305 450.19 336.769 448.133C332.843 442.873 328.906 437.955 325.182 433.303C312.484 417.441 302.261 404.67 303.402 391.965C304.535 379.199 327.191 378.461 364.763 377.734C372.602 377.573 388.156 377.16 385.157 370.328C382.532 364.41 371.269 362.377 357.349 359.865Z" fill="white"/>
</svg>
