<svg width="1000" height="1000" viewBox="0 0 1000 1000" fill="none" xmlns="http://www.w3.org/2000/svg">
<rect width="1000" height="1000" fill="#162A4A"/>
<path d="M415 293.75H301.659C259.57 293.75 232.048 322.919 232.048 363.443V520.64C232.048 561.143 259.57 588.692 301.659 588.692H353.486V601.646C351.868 632.455 335.664 648.647 293.568 650.267H267.666V703.745H293.568C369.668 703.745 413.382 668.1 415 601.646V345.61V293.75ZM353.486 535.213H319.482C303.278 535.213 293.568 525.498 293.568 510.903V373.159C293.568 358.585 303.278 348.848 317.863 348.848H353.486V535.213ZM766.328 363.443V588.692H704.813V373.159C704.813 358.585 695.104 348.848 680.518 348.848H644.896V588.692H583.382V348.848H523.486V588.692H461.95V293.75H696.722C740.436 293.75 766.328 321.299 766.328 363.443ZM766.328 703.745H461.95V650.267H766.328V703.745ZM925 194.911C925 121.98 876.432 75 803.568 75H194.809C121.952 75 75 121.98 75 194.911V804.219C75 877.141 121.952 925.756 194.809 925.756H803.568C876.432 925.756 925 877.141 925 804.219V194.911ZM797.095 870.66H201.286C152.714 870.66 128.429 846.351 128.429 797.737V201.388C128.429 152.767 152.714 128.479 201.286 128.479H797.095C845.664 128.479 869.959 152.767 869.959 201.388V797.737C869.959 846.351 845.664 870.66 797.095 870.66Z" fill="white"/>
</svg>
