<svg width="1000" height="1000" viewBox="0 0 1000 1000" fill="none" xmlns="http://www.w3.org/2000/svg">
<rect width="1000" height="1000" fill="#FEE10A"/>
<path fill-rule="evenodd" clip-rule="evenodd" d="M642.446 267.089C588.581 238.909 526.822 231.203 468.64 243.973L468.422 244.266C438.743 250.183 410.427 264.665 387.424 287.711C336.886 338.344 327.609 414.663 359.599 474.724L359.89 475.259C360.347 476.1 361.088 477.46 361.25 477.872C366.411 490.98 363.917 506.413 353.762 517.271C353.48 517.572 352.798 518.362 352.798 518.362C349.324 521.84 349.324 527.48 352.798 530.96C353.058 531.202 353.325 531.434 353.601 531.656C354.185 532.128 354.806 532.555 355.455 532.935L355.584 533.01C409.885 561.357 472.189 568.91 530.752 555.692C560.368 549.754 588.617 535.284 611.576 512.282C661.549 462.217 671.177 387.036 640.461 327.294C640.18 326.749 638.793 323.749 638.615 323.351C632.687 310.061 634.868 294.024 645.155 282.756C645.396 282.576 646.244 281.684 646.729 281.168C646.887 281 647.036 280.824 647.174 280.64C647.27 280.51 647.36 280.377 647.444 280.239C649.53 276.81 649.096 272.275 646.135 269.311C646.078 269.253 645.946 269.149 645.781 269.024C645.027 268.455 644.218 267.962 643.369 267.544L642.446 267.089ZM419.497 319.346C440.893 297.922 469.338 286.123 499.595 286.123C529.852 286.123 558.297 297.922 579.692 319.346C623.858 363.573 623.858 435.537 579.692 479.765C558.297 501.19 529.852 512.988 499.595 512.988C469.338 512.988 440.893 501.19 419.497 479.765C375.332 435.537 375.332 363.573 419.497 319.346ZM558.765 340.276C542.959 324.442 521.946 315.722 499.595 315.722C477.244 315.722 456.23 324.442 440.426 340.276C407.801 372.963 407.801 426.147 440.426 458.834C456.23 474.669 477.244 483.388 499.595 483.388C521.946 483.388 542.959 474.669 558.765 458.834C591.389 426.147 591.389 372.963 558.765 340.276ZM511.109 354.805C520.557 345.346 535.874 345.346 545.321 354.805C554.77 364.264 554.77 379.599 545.321 389.059C535.874 398.518 520.557 398.518 511.109 389.059C501.662 379.599 501.662 364.264 511.109 354.805ZM704.463 632.463C698.584 632.412 689.179 632.331 679.689 636.338C671.95 639.607 659.727 647.864 659.727 662.658C659.727 668.607 659.731 673.762 659.735 678.675C659.741 685.676 659.746 692.188 659.738 699.813C659.725 712.166 659.726 713.367 659.726 718.882V726.133C659.726 733.391 662.947 747.048 671.262 753.312C681.939 761.355 691.753 762 701.514 762C712.196 762 719.517 761.798 728.473 757.008C739.887 750.904 744.543 739.081 744.911 726.478C745.154 718.156 744.908 714.459 744.46 707.758L744.445 707.554C744.402 706.906 744.371 706.232 744.339 705.537C744.038 699.014 743.649 690.606 732.147 683.3C726.704 679.842 714.261 677.365 705.488 677.279C695.688 677.183 683.989 680.719 683.989 680.719L683.991 679.96C683.996 678.01 684.021 672.621 684.145 667.462C684.402 656.711 700.033 654.152 708.066 654.182C716.182 654.212 725.341 656.469 730.805 658.062C733.322 658.796 735.873 657.017 736.067 654.402L737.045 641.231C737.179 639.422 736.12 637.729 734.427 637.076C726.464 634.005 716.575 632.473 706.176 632.473C705.646 632.473 705.073 632.468 704.463 632.463ZM827.138 637.843C820.316 634.431 810.801 632.45 800.842 632.45C790.738 632.45 781.061 633.606 772.867 639.213C763.107 645.892 759.349 657.537 759.349 668.496V723.469C759.349 741.963 765.926 749.096 772.354 753.437C780.101 758.668 790.893 762 801.67 762C813.621 762 828.309 758.783 837.07 747.957C842.893 740.765 844 728.263 844 716.618L843.992 701.968V700.587V691.114L843.995 679.122L843.999 665.158C843.999 654.54 838.096 643.323 827.138 637.843ZM627.018 637.736C619.631 633.734 609.546 632.45 600.479 632.45C581.83 632.45 568.803 637.514 563.334 640.851C561.996 641.666 561.229 643.157 561.348 644.72L562.361 658.012C562.578 660.847 565.506 662.634 568.123 661.524C574.312 658.898 584.998 655.066 595.181 654.795C600.103 654.664 607.171 654.891 610.767 656.354C614.81 657.999 617.318 661.419 617.363 665.143C617.385 666.875 617.401 667.752 617.413 668.387C617.43 669.229 617.438 669.646 617.438 671.07C617.438 676.609 615.42 677.966 613.641 679.562C611.129 681.813 606.385 682.473 600.758 683.148C597.175 683.578 588.492 684.159 581.026 684.401C578.788 684.474 577.009 686.299 576.999 688.539L576.946 701.901C576.937 704.192 578.777 706.058 581.068 706.074C587.549 706.12 596.471 706.221 602.991 706.926C611.984 707.898 619.622 710.348 619.622 717.742L619.623 719.801C619.624 720.876 619.626 720.625 619.629 720.358C619.633 719.901 619.637 719.398 619.637 725.425C619.637 736.405 610.03 738.014 595.717 738.014C586.347 738.014 575.645 733.952 569.371 731.148C566.74 729.972 563.746 731.768 563.534 734.641L562.485 748.833C562.372 750.367 563.113 751.832 564.411 752.657C569.035 755.599 581.051 762 598.056 762C610.257 762 625.452 759.293 633.468 753.42C636.34 751.316 644.776 743.383 644.776 731.259V714.106C644.776 708.044 641.606 697.225 630.856 693.719C628.19 692.848 626.734 692.418 625.483 692.418C628.509 691.255 631.467 689.713 635.372 685.962C639.278 682.212 641.088 676.266 641.088 668.816L641.096 665.298C641.098 665.134 641.1 664.961 641.101 664.542L641.102 662.675C641.102 652.037 636.368 642.801 627.018 637.736ZM535.787 665.134C527.577 660.932 518.188 658.831 507.618 658.831C492.934 658.831 478.728 660.736 470.317 664.811C468.799 665.546 467.895 667.142 467.988 668.835L468.752 682.819C468.908 685.671 471.751 687.553 474.408 686.549C481.311 683.94 493.372 680.412 504.837 680.277C512.601 680.184 516.522 680.98 519.294 682.489C522.065 683.999 523.138 685.671 523.138 689.635C523.138 692.891 523.1 698.282 523.1 698.282C523.1 698.282 509.679 697.305 503.193 697.698C494.303 698.237 485.986 699.295 476.712 704.051C469.107 707.949 462.959 713.468 462.959 725.363V737.869C462.959 746.147 468.019 752.773 475.005 756.275C482.618 760.092 491.188 762 507.016 762C528.653 762 542.146 752.912 546.526 749.424C547.528 748.626 548.093 747.419 548.093 746.132V688.925C548.093 677.266 543.996 669.337 535.787 665.134ZM378.675 664.361C368.838 660.883 361.515 658.784 345.565 658.784C338.596 658.784 330.537 659.561 323.33 662.148C311.756 666.305 308.416 674.395 307.693 681.573C307.636 682.148 307.58 682.675 307.527 683.174C307.248 685.806 307.053 687.654 307.068 691.598C307.099 699.317 308.675 705.508 313.025 709.607C317.375 713.767 326.912 716.968 341.407 718.896C354.287 720.61 357.359 722.124 359.575 723.741C362.648 725.984 362.377 733.708 360.298 735.503C356.942 738.399 348.99 739.077 339.374 738.461C329.805 737.847 319.598 734.918 313.575 732.922C310.873 732.026 308.047 733.904 307.863 736.726L306.951 750.724C306.842 752.41 307.733 754 309.231 754.8C316.884 758.891 333.562 762 346.649 762C361.103 762 372.41 759.039 378.557 753.746C385.582 747.695 386.51 740.157 386.51 730.389V729.909C386.512 722.58 386.515 713.674 381.81 708.835C376.945 703.952 371.958 700.952 359.123 699.427C347.028 697.989 335.826 696.053 332.753 694.246C329.609 692.398 330.011 685.996 331.916 683.726C334.628 680.496 346.854 681.188 353.971 681.932C362.907 682.865 370.03 684.699 374.449 686.079C377.057 686.894 379.758 685.128 380.052 682.432L381.532 668.883C381.749 666.902 380.565 665.03 378.675 664.361ZM429.031 643.15C429.031 640.749 427.085 638.802 424.683 638.802H405.29C402.888 638.802 400.941 640.749 400.941 645.599V735.203C400.941 735.536 400.936 735.908 400.929 736.314C400.858 740.441 400.73 748.022 406.571 753.104C412.985 758.687 423.722 759.41 432.695 759.46C439.78 759.5 445.416 758.652 448.825 757.957C450.914 757.531 452.378 755.652 452.281 753.522L451.618 739.154C451.499 736.558 449.138 734.667 446.575 735.093C444.674 735.408 442.205 735.68 439.125 735.711C434.862 735.754 431.513 735.537 430.484 734.55C429.45 733.557 428.941 731.801 428.941 727.746L428.834 687.247H444.673C447.093 687.247 449.082 685.267 449.093 682.848L449.16 668.358C449.171 665.963 447.233 664.016 444.839 664.016H429.031V643.15ZM259.084 659.816C250.799 658.821 242.688 657.848 229.112 661.16C214.946 664.616 207.95 669.806 205.25 672.297C204.368 673.111 203.87 674.254 203.87 675.454V754.969C203.87 757.344 205.794 759.462 208.168 759.462H226.973C229.347 759.462 231.271 757.344 231.271 754.969V706.084C231.271 703.127 231.295 701.146 231.319 699.111C231.345 696.962 231.371 694.752 231.371 691.271C231.371 684.493 239.477 682.404 248.138 682.404C255.186 682.404 263.074 684.554 263.074 691.271C263.074 695.01 262.971 697.822 262.971 700.344V754.969C262.971 757.344 264.895 759.462 267.268 759.462H286.61C288.983 759.462 290.909 757.344 290.909 754.969V697.732C290.909 685.396 288.772 674.579 282.331 669.252L282.286 669.215C279.894 667.237 272.912 661.463 260.105 659.938L259.084 659.816ZM185.45 634.349C185.45 631.947 183.504 630 181.102 630H161.349C158.947 630 157 631.947 157 634.349V755.112C157 757.515 158.947 759.461 161.349 759.461H181.102C183.504 759.461 185.45 757.515 185.45 755.112V634.349ZM509.626 717.257C517.666 717.024 523.336 718.093 523.336 718.093V722.453C523.336 723.276 523.341 724.037 523.346 724.742C523.387 731.291 523.398 733.09 519.221 735.976C514.592 739.171 507.622 739.726 502.129 739.806C496.612 739.887 490.072 738.622 487.578 735.979C485.963 734.268 486.017 733.476 486.134 731.738C486.171 731.193 486.214 730.555 486.214 729.767C486.214 724.915 488.316 721.312 493.216 719.375C497.773 717.573 504.244 717.4 508.665 717.283L509.626 717.257ZM684.147 704.456C684.147 704.456 693.486 700.416 702.258 700.674L702.635 700.685C707.735 700.832 713.343 700.995 716.841 704.802C720.147 708.404 720.646 711.561 720.704 717.798L720.71 719.424C720.71 726.013 720.563 730 717.415 734.132C714.265 738.264 707.144 739.198 701.653 739.198C696.047 739.198 690.742 738.409 687.102 734.132C683.954 730.435 684.012 726.165 684.085 720.707C684.097 719.851 684.108 718.965 684.108 718.048L684.115 712.059C684.126 707.259 684.147 704.456 684.147 704.456ZM790.292 657.989C793.378 655.556 796.097 654.625 800.726 654.625C805.056 654.625 810.422 655.621 813.097 658.051C816.786 661.399 816.986 665.156 816.994 668.792L816.99 676.897C816.987 680.065 816.983 683.533 816.981 688.471L816.979 697.125C816.979 706.151 816.881 710.006 816.881 716.432V722.698C816.881 730.575 816.372 732.372 812.627 735.821C809.343 738.845 803.377 738.881 800.398 738.881C795.832 738.881 791.765 737.654 788.807 734.997C785.79 732.286 785.322 729.709 785.277 720.528L785.273 718.728C785.273 715.892 785.259 713.477 785.242 710.738C785.22 707.151 785.194 703.01 785.194 696.639C785.194 688.437 785.295 681.605 785.24 674.406C785.178 666.078 785.841 661.5 790.292 657.989Z" fill="black"/>
</svg>
