<svg width="1000" height="1000" viewBox="0 0 1000 1000" fill="none" xmlns="http://www.w3.org/2000/svg">
<rect width="1000" height="1000" fill="white"/>
<path d="M143.506 760.662C159.297 760.662 172.127 765.992 181.996 776.453C191.274 786.52 196.011 799.548 196.011 815.142C196.011 830.735 191.274 843.763 181.996 853.83C172.127 864.292 159.494 869.621 143.506 869.621C127.517 869.621 114.884 864.292 105.015 853.83C95.7373 843.763 91 830.735 91 815.142C91 799.548 95.7373 786.52 105.015 776.453C114.884 765.992 127.517 760.662 143.506 760.662ZM143.506 855.212C154.954 855.212 163.837 851.461 170.548 843.368C176.864 835.67 180.023 826.59 180.023 815.142C180.023 803.693 176.864 794.218 170.548 786.915C163.837 779.019 154.954 775.072 143.506 775.072C132.057 775.072 123.174 778.822 116.463 786.915C110.147 794.613 106.989 803.693 106.989 815.142C106.989 826.59 110.147 836.065 116.463 843.368C122.78 851.461 132.057 855.212 143.506 855.212ZM232.726 762.636V779.217C236.476 774.085 241.213 769.939 246.74 766.189C252.07 762.636 258.386 760.86 265.492 760.86C272.401 760.86 278.52 761.847 283.652 763.623C288.784 765.597 293.127 768.755 297.074 772.506C305.562 780.993 310.102 792.442 310.102 806.457V868.042H294.311V807.049C294.311 797.179 291.548 789.481 286.021 783.954C280.691 778.23 273.388 775.466 264.703 775.466C255.82 775.466 248.122 778.23 242.2 784.349C235.884 790.468 232.923 797.969 232.923 807.443V868.437H217.132V762.636H232.726ZM398.335 790.863C397.151 779.809 388.268 774.282 372.082 774.282C355.897 774.282 347.606 779.414 347.606 789.481C347.606 793.626 349.185 796.784 352.738 798.956C356.291 801.127 360.634 803.101 365.766 804.285C370.898 805.47 376.622 807.049 382.939 808.036C389.058 809.22 394.585 810.799 400.112 813.168C405.244 815.339 409.586 818.3 413.139 822.05C416.692 825.801 418.272 830.933 418.272 837.644C418.272 847.711 414.521 855.804 406.626 861.133C398.927 866.463 388.466 869.424 375.241 869.424C361.226 869.424 349.777 865.871 341.684 858.962C333.986 852.646 330.038 844.75 329.249 834.486H345.83C346.817 844.355 352.146 850.672 362.41 854.225C366.161 855.409 369.714 855.804 373.267 855.804C376.82 855.804 380.175 855.409 383.334 855.212C386.492 854.817 389.453 854.027 392.611 853.04C399.322 850.474 402.678 845.737 402.678 839.421C402.678 834.881 401.099 831.722 397.546 829.354C393.993 827.182 389.65 825.209 384.518 823.629C379.386 822.05 373.662 820.866 367.345 819.484C361.226 818.3 355.699 816.721 350.172 814.352C345.04 812.181 340.698 809.22 337.145 805.864C333.591 802.114 332.012 797.377 332.012 790.665C332.012 781.191 335.565 773.493 342.474 768.36C349.383 763.031 359.647 760.465 373.267 760.465C386.294 760.465 396.361 763.623 403.665 769.742C409.981 774.874 413.534 781.783 414.521 790.468H398.73V790.863H398.335ZM453.802 720V778.822C457.552 773.69 462.289 769.545 467.816 765.794C473.146 762.241 479.462 760.465 486.568 760.465C493.477 760.465 499.596 761.452 504.728 763.228C509.86 765.202 514.203 768.36 518.151 772.111C526.638 780.599 531.178 792.047 531.178 806.062V867.647H515.387V807.049C515.387 797.179 512.624 789.481 507.097 783.954C501.767 778.23 494.464 775.466 485.779 775.466C476.896 775.466 469.198 778.23 463.276 784.349C456.96 790.468 453.999 797.969 453.999 807.443V868.437H438.208V720.197H453.802V720ZM639.742 851.264C631.255 863.699 618.819 870.016 602.041 870.016C586.842 870.016 574.406 864.686 564.932 854.225C555.654 843.763 550.917 831.13 550.917 815.536C550.917 800.337 555.654 787.31 564.932 776.848C574.406 766.386 587.237 761.057 603.028 761.057C618.819 761.057 631.255 767.373 639.742 779.809V762.241H655.534V868.042H639.742V851.264ZM604.212 855.212C615.661 855.212 624.543 851.461 631.255 843.368C637.571 835.67 640.729 826.59 640.729 815.142C640.729 803.693 637.571 794.218 631.255 786.915C624.543 779.019 615.661 775.072 604.212 775.072C593.158 775.072 583.881 778.822 576.973 786.915C570.261 794.613 567.103 803.693 567.103 815.142C567.103 826.59 570.261 836.065 576.973 843.368C583.684 851.461 592.764 855.212 604.212 855.212ZM698.762 779.414C707.25 766.979 719.685 760.662 736.463 760.662C751.662 760.662 764.098 765.992 773.178 776.453C782.652 786.915 787.39 799.548 787.39 815.142C787.39 830.341 782.652 843.368 773.178 853.83C763.703 864.292 750.873 869.621 735.081 869.621C719.29 869.621 706.855 863.305 698.17 850.869V910.283H682.378V762.636H698.17V779.414H698.762ZM734.687 774.874C723.238 774.874 714.356 778.625 707.644 786.718C701.328 794.416 698.17 803.496 698.17 814.944C698.17 826.393 701.328 835.868 707.644 843.171C714.356 851.067 723.238 855.014 734.687 855.014C745.741 855.014 755.018 851.264 761.926 843.171C768.638 835.473 771.796 826.393 771.796 814.944C771.796 803.496 768.638 794.021 761.926 786.718C755.018 779.019 745.741 774.874 734.687 774.874ZM855.686 855.212C869.898 855.212 880.163 849.093 886.084 837.447H903.455C899.704 846.921 893.98 855.014 886.084 860.541C878.189 866.66 867.924 869.424 855.292 869.424C839.5 869.424 826.473 864.094 816.603 853.633C806.734 843.566 801.996 830.538 801.996 814.944C801.996 799.351 806.734 786.323 816.011 776.256C825.88 765.794 838.513 760.465 854.502 760.465C870.293 760.465 883.123 765.794 892.993 776.256C902.27 786.323 907.008 799.351 907.008 814.944V821.261H818.38C819.564 831.13 823.512 839.026 830.026 845.342C836.54 852.053 845.027 855.212 855.686 855.212ZM854.305 774.874C844.435 774.874 836.54 778.032 829.828 784.152C823.512 789.876 819.959 797.574 818.38 806.654H890.032C888.848 797.377 884.9 789.876 878.583 784.152C872.07 778.032 864.174 774.874 854.305 774.874Z" fill="#3B4550"/>
<path d="M936.42 794.416C927.142 794.416 919.839 786.718 919.839 777.835C919.839 768.558 927.537 761.254 936.42 761.254C945.697 761.254 953 768.953 953 777.835C953 786.718 945.697 794.416 936.42 794.416ZM936.42 762.636C928.129 762.636 921.418 769.347 921.418 777.638C921.418 785.928 928.129 792.639 936.42 792.639C944.71 792.639 951.421 785.928 951.421 777.638C951.421 769.15 944.512 762.636 936.42 762.636Z" fill="#3B4550"/>
<path d="M938.196 769.15C939.776 769.15 940.96 769.545 941.947 770.334C942.934 771.321 943.131 772.308 943.131 773.887C943.131 774.874 942.736 775.861 942.539 776.651C941.947 777.638 941.355 777.835 940.368 778.23C940.96 778.23 941.355 778.625 941.552 778.822C941.947 779.217 942.144 779.414 942.144 779.809C942.539 780.204 942.539 780.401 942.539 780.796C942.539 781.191 942.539 781.783 942.934 781.98C942.934 782.375 942.934 782.967 942.934 783.165C942.934 783.362 942.934 784.152 942.934 784.349C942.934 784.546 943.329 785.336 943.329 785.533C943.329 785.928 943.723 786.125 943.921 786.52H941.355C940.96 786.125 940.96 786.125 940.96 785.928C940.96 785.533 940.96 785.336 940.96 784.941C940.96 784.546 940.96 783.954 940.96 783.757C940.96 783.362 940.96 782.77 940.96 782.572C940.96 782.178 940.96 781.585 940.565 781.388C940.565 780.993 940.17 780.796 940.17 780.401C939.776 780.006 939.578 779.809 939.183 779.809C938.789 779.414 938.196 779.414 937.999 779.414H932.275V787.112H930.104V769.545H937.999V769.15H938.196ZM938.789 777.243C939.381 777.243 939.776 776.848 939.973 776.651C940.368 776.256 940.565 776.059 940.96 775.664C941.355 775.269 941.355 774.677 941.355 774.085C941.355 773.098 940.96 772.506 940.762 771.913C940.17 771.321 939.578 770.926 938.196 770.926H932.472V777.045H937.209C937.802 777.243 938.196 777.243 938.789 777.243Z" fill="#3B4550"/>
<path d="M389 395.524L429.033 418.4V366.52L538.103 302.794L498.887 278.284L389.409 342.827V395.524H389ZM561.387 316.683L521.354 339.559L567.515 366.52L566.698 489.479L606.731 466.603V342.827L561.387 316.683ZM543.822 504.185V459.658L497.661 486.619L388.592 422.893V467.42L498.07 531.146L543.822 504.185Z" fill="#3B4550"/>
<path d="M498.479 130L589.166 182.696L350.602 324.037V445.77L264 395.116V266.847L498.479 130ZM735 538.5L644.313 592.421V322.403L534.835 257.86L626.748 204.755L735 267.664V538.5ZM264 540.134V440.051L498.479 574.039L606.323 509.496L607.14 613.255L500.93 676.164L264 540.134Z" fill="#64BC4F"/>
</svg>
