<svg width="1000" height="1000" viewBox="0 0 1000 1000" fill="none" xmlns="http://www.w3.org/2000/svg">
<rect width="1000" height="1000" fill="white"/>
<path d="M129.237 822.596V784.551L112.49 822.596H106.301L89.7353 784.551V822.596H83V773.629H92.1018L109.395 813.312L126.689 773.629H135.79V822.596C135.973 822.596 129.237 822.596 129.237 822.596ZM187.125 822.596H180.571V789.466H186.943V794.199C189.309 790.012 193.314 788.556 197.137 788.556C205.146 788.556 208.969 794.199 208.969 801.662V822.778H202.416V802.936C202.416 798.386 200.413 794.563 194.77 794.563C189.673 794.563 187.125 798.568 187.125 803.665C187.125 803.483 187.125 822.596 187.125 822.596ZM263.58 795.291V822.596H256.844V795.291H250.655V789.466H256.844V783.823C256.844 776.359 261.759 772.536 267.767 772.536C269.951 772.536 271.407 773.082 271.589 773.265V779.09C271.225 778.908 270.497 778.726 268.677 778.726C266.492 778.726 263.398 779.818 263.398 784.369V789.648H271.407V795.473H263.58V795.291ZM354.598 789.466H361.697V795.291H354.598V812.584C354.598 815.679 355.872 817.135 359.149 817.135C360.059 817.135 360.787 816.953 361.697 816.771V822.232C361.151 822.414 359.513 822.96 357.328 822.96C351.685 822.96 348.045 819.502 348.045 813.495V795.291H341.673V789.466H348.591V778.908L354.416 776.723V789.466H354.598ZM380.993 823.689C373.348 823.689 368.615 817.863 368.615 810.4V789.466H375.168V809.308C375.168 813.859 377.17 817.863 382.631 817.863C387.91 817.863 390.459 814.405 390.459 809.308V789.284H397.012V822.414H390.823V818.41C389.003 822.05 384.816 823.689 380.993 823.689ZM229.539 823.689C221.894 823.689 217.161 817.863 217.161 810.4V789.466H223.714V809.308C223.714 813.859 225.716 817.863 231.177 817.863C236.456 817.863 239.005 814.405 239.005 809.308V789.284H245.376V822.414H239.187V818.41C237.367 822.05 233.362 823.689 229.539 823.689ZM424.864 796.019C423.954 795.837 422.861 795.837 421.951 795.837C416.49 795.837 412.849 798.75 412.849 806.031V822.596H406.296V789.466H412.667V795.291C415.034 790.194 419.221 788.92 422.497 788.92C423.408 788.92 424.318 789.102 424.682 789.102L424.864 796.019ZM433.602 775.449C435.786 775.449 437.424 777.087 437.424 779.272C437.424 781.274 435.786 782.912 433.602 782.912C431.599 782.912 429.961 781.274 429.961 779.272C429.961 777.087 431.599 775.449 433.602 775.449ZM430.507 822.596V789.466H436.878V822.596H430.507ZM452.897 822.596H446.344V789.466H452.715V794.199C455.082 790.012 459.087 788.556 462.909 788.556C470.919 788.556 474.742 794.199 474.742 801.662V822.778H468.188V802.936C468.188 798.386 466.186 794.563 460.543 794.563C455.446 794.563 452.897 798.568 452.897 803.665V822.596ZM521.343 814.951C523.527 814.951 525.166 816.589 525.166 818.774C525.166 820.958 523.527 822.596 521.343 822.596C519.159 822.596 517.52 820.958 517.52 818.774C517.52 816.589 519.159 814.951 521.343 814.951ZM581.051 808.944H559.389L554.292 822.596H547.01L566.488 773.629H574.316L593.793 822.596H586.512L581.051 808.944ZM561.755 802.572H578.502L569.947 780.728L561.755 802.572ZM703.197 822.596V772.718H709.75V822.596H703.197ZM748.342 813.13C746.522 818.956 741.243 823.689 733.415 823.689C724.495 823.689 716.668 817.135 716.668 806.031C716.668 795.655 724.131 788.556 732.505 788.556C742.699 788.556 748.342 795.655 748.342 805.849C748.342 806.759 748.342 807.487 748.16 807.851H723.221C723.403 813.859 727.59 817.863 733.233 817.863C738.512 817.863 741.243 814.951 742.517 811.128L748.342 813.13ZM741.607 802.572C741.425 797.839 738.33 794.017 732.505 794.017C727.044 794.017 723.767 798.203 723.403 802.572H741.607ZM695.916 813.13C694.095 818.956 688.816 823.689 680.989 823.689C672.069 823.689 664.241 817.135 664.241 806.031C664.241 795.655 671.705 788.556 680.078 788.556C690.273 788.556 695.916 795.655 695.916 805.849C695.916 806.759 695.916 807.487 695.734 807.851H670.795C670.977 813.859 675.164 817.863 680.807 817.863C686.086 817.863 688.816 814.951 690.09 811.128L695.916 813.13ZM689.362 802.572C689.18 797.839 686.086 794.017 680.26 794.017C674.799 794.017 671.523 798.203 671.159 802.572H689.362ZM773.827 796.019C772.917 795.837 771.825 795.837 770.915 795.837C765.453 795.837 761.813 798.75 761.813 806.031V822.596H755.259V789.466H761.631V795.291C763.997 790.194 768.184 788.92 771.461 788.92C772.371 788.92 773.281 789.102 773.645 789.102L773.827 796.019ZM865.573 813.13C863.753 818.956 858.474 823.689 850.646 823.689C841.727 823.689 833.899 817.135 833.899 806.031C833.899 795.655 841.363 788.556 849.736 788.556C859.93 788.556 865.573 795.655 865.573 805.849C865.573 806.759 865.573 807.487 865.391 807.851H840.634C840.816 813.859 845.003 817.863 850.646 817.863C855.925 817.863 858.656 814.951 859.93 811.128L865.573 813.13ZM859.02 802.572C858.838 797.839 855.743 794.017 849.918 794.017C844.457 794.017 841.18 798.203 840.816 802.572H859.02ZM895.791 817.499C894.153 820.594 890.694 823.506 885.597 823.506C875.949 823.506 869.942 815.861 869.942 805.849C869.942 796.383 876.313 788.556 885.597 788.556C891.422 788.556 894.699 791.468 895.791 794.199V772.718H902.163V822.596H895.973V817.499H895.791ZM886.143 817.681C891.969 817.681 895.791 812.584 895.791 805.667C895.791 798.75 892.151 794.199 886.325 794.199C880.318 794.199 876.496 798.932 876.496 805.849C876.496 812.766 879.954 817.681 886.143 817.681ZM909.99 814.951C912.175 814.951 913.813 816.589 913.813 818.774C913.813 820.958 912.175 822.596 909.99 822.596C907.806 822.596 906.167 820.958 906.167 818.774C906.167 816.589 907.806 814.951 909.99 814.951ZM909.444 773.629V777.633H908.352V773.629H906.896V772.718H910.9V773.629H909.444ZM916.361 777.633V774.539L914.905 777.633H914.177L912.903 774.539V777.633H911.81V772.718H913.085L914.541 776.177L915.997 772.718H917.272V777.633H916.361Z" fill="#343842"/>
<path d="M822.614 789.466H829.714V795.291H822.614V812.584C822.614 815.679 823.888 817.135 827.165 817.135C828.075 817.135 828.803 816.953 829.714 816.771V822.232C829.168 822.414 827.529 822.961 825.345 822.961C819.702 822.961 816.061 819.502 816.061 813.495V795.291H809.69V789.466H816.607V778.908L822.432 776.723V789.466H822.614ZM506.964 789.466V794.017C505.325 790.74 501.867 788.738 496.77 788.738C487.668 788.738 481.479 795.837 481.479 804.939C481.479 814.223 487.85 820.958 496.77 820.958C501.502 820.958 504.779 818.774 506.599 816.043L506.417 816.771V819.138C506.417 825.327 502.959 828.422 496.77 828.422C492.583 828.422 489.124 827.147 485.847 825.145L483.299 830.424C487.304 832.791 491.855 834.065 496.952 834.065C502.413 834.065 506.782 832.79 509.512 829.878C512.061 827.329 513.335 823.507 513.335 818.41V789.102L506.964 789.466ZM497.68 815.497C491.855 815.497 488.032 811.31 488.032 804.939C488.032 798.568 491.855 794.381 497.68 794.381C503.323 794.381 507.146 798.568 507.146 804.939C507.146 811.31 503.323 815.497 497.68 815.497Z" fill="#343842"/>
<path d="M158.184 788.374C151.63 788.374 146.533 792.015 145.077 797.476L151.084 798.932C151.994 796.02 154.361 793.835 158.184 793.835C163.281 793.835 165.283 796.566 165.283 799.66C165.283 800.752 164.737 801.845 162.735 802.209L153.815 803.483C148.172 804.393 143.803 807.67 143.803 813.495C143.803 818.774 148.172 823.507 154.907 823.507C160.914 823.507 164.191 820.412 165.647 818.046V822.597H171.836V800.57C171.836 794.017 168.014 788.374 158.184 788.374ZM165.465 808.398C165.465 815.679 161.278 818.228 155.817 818.228C152.54 818.228 150.356 815.861 150.356 813.495C150.356 810.582 152.358 808.944 155.089 808.58L165.283 807.124L165.465 808.398ZM288.339 788.374C281.786 788.374 276.689 792.015 275.233 797.476L281.24 798.932C282.15 796.02 284.517 793.835 288.339 793.835C293.436 793.835 295.439 796.566 295.439 799.66C295.439 800.752 294.893 801.845 292.89 802.209L283.971 803.483C278.327 804.393 273.959 807.67 273.959 813.495C273.959 818.774 278.327 823.507 285.063 823.507C291.07 823.507 294.347 820.412 295.803 818.046V822.597H301.992V800.57C302.174 794.017 298.169 788.374 288.339 788.374ZM295.621 808.398C295.621 815.679 291.434 818.228 285.973 818.228C282.696 818.228 280.512 815.861 280.512 813.495C280.512 810.582 282.514 808.944 285.245 808.58L295.439 807.124L295.621 808.398ZM791.669 788.374C785.116 788.374 780.019 792.015 778.563 797.476L784.57 798.932C785.48 796.02 787.847 793.835 791.669 793.835C796.766 793.835 798.769 796.566 798.769 799.66C798.769 800.752 798.223 801.845 796.22 802.209L787.301 803.483C781.657 804.393 777.289 807.67 777.289 813.495C777.289 818.774 781.657 823.507 788.393 823.507C794.4 823.507 797.677 820.412 799.133 818.046V822.597H805.322V800.57C805.504 794.017 801.499 788.374 791.669 788.374ZM798.951 808.398C798.951 815.679 794.764 818.228 789.303 818.228C786.026 818.228 783.842 815.861 783.842 813.495C783.842 810.582 785.844 808.944 788.575 808.58L798.769 807.124L798.951 808.398Z" fill="#343842"/>
<path d="M324.744 817.682C319.283 817.682 314.55 813.677 314.55 806.031C314.55 798.204 319.283 794.381 324.562 794.381C329.841 794.381 332.207 797.658 333.118 800.752L338.943 798.204C337.304 793.471 332.935 788.374 324.562 788.374C315.096 788.374 307.814 795.655 307.814 806.031C307.814 816.043 314.914 823.689 324.562 823.689C332.753 823.689 337.304 818.592 339.125 814.041L333.482 811.493C332.753 814.041 330.387 817.682 324.744 817.682ZM611.815 817.682C606.354 817.682 601.621 813.677 601.621 806.031C601.621 798.204 606.354 794.381 611.633 794.381C616.912 794.381 619.278 797.658 620.188 800.752L626.014 798.204C624.375 793.471 620.006 788.374 611.633 788.374C602.167 788.374 594.885 795.655 594.885 806.031C594.885 816.043 601.985 823.689 611.633 823.689C619.824 823.689 624.375 818.592 626.196 814.041L620.553 811.493C619.824 814.041 617.64 817.682 611.815 817.682ZM646.402 817.682C640.941 817.682 636.208 813.677 636.208 806.031C636.208 798.204 640.941 794.381 646.22 794.381C651.499 794.381 653.865 797.658 654.775 800.752L660.6 798.204C658.962 793.471 654.593 788.374 646.22 788.374C636.754 788.374 629.472 795.655 629.472 806.031C629.472 816.043 636.572 823.689 646.22 823.689C654.411 823.689 658.962 818.592 660.783 814.041L655.139 811.493C654.411 814.041 652.227 817.682 646.402 817.682Z" fill="#343842"/>
<path d="M912.174 648.57C908.897 648.57 906.349 646.022 906.167 642.745C906.167 639.468 908.897 636.92 912.174 636.92C915.451 636.92 917.999 639.468 917.999 642.745C917.999 646.022 915.451 648.57 912.174 648.57ZM912.174 638.012C909.626 638.012 907.441 640.196 907.441 642.745C907.441 645.293 909.626 647.478 912.174 647.478C914.723 647.478 916.907 645.293 916.907 642.745C916.907 640.196 914.723 638.012 912.174 638.012ZM914.723 646.022C914.905 646.204 914.722 646.386 914.54 646.386H913.448C913.266 646.386 913.084 646.386 913.084 646.204C912.72 645.293 912.356 644.565 911.81 643.655H910.9V646.022C910.9 646.204 910.9 646.386 910.718 646.386H909.808C909.626 646.386 909.626 646.204 909.626 646.022V639.65C909.626 639.468 909.808 639.468 909.99 639.468H912.174C913.266 639.468 914.358 640.014 914.358 641.471C914.358 642.199 913.994 643.109 913.084 643.473L914.723 646.022ZM912.174 640.561H911.082V642.563H912.174C912.72 642.563 913.266 642.381 913.266 641.471C913.266 640.743 912.902 640.561 912.174 640.561ZM429.232 646.022H402.655V735.947C402.655 737.768 401.927 739.042 399.56 739.042H387C384.633 739.042 383.723 737.95 383.723 735.947V646.022H351.139L357.146 629.456H435.421L429.232 646.022Z" fill="#429DCA"/>
<path d="M301.081 740.68C260.669 740.68 257.028 708.46 257.028 682.793C257.028 662.769 261.579 628 301.263 628C340.583 628 346.226 656.216 346.226 682.793C346.226 708.46 342.039 740.68 301.081 740.68ZM301.263 644.201C282.513 644.201 276.506 658.946 276.506 684.431C276.506 709.188 281.421 724.297 301.263 724.297C321.469 724.297 327.294 710.098 327.294 684.431C327.112 658.036 321.469 644.201 301.263 644.201ZM483.299 740.68C442.887 740.68 439.246 708.46 439.246 682.793C439.246 662.769 443.797 628 483.481 628C522.801 628 528.444 656.216 528.444 682.793C528.444 708.46 524.257 740.68 483.299 740.68ZM483.481 644.201C464.732 644.201 458.724 658.946 458.724 684.431C458.724 709.188 463.639 724.297 483.481 724.297C503.687 724.297 509.33 710.098 509.33 684.431C509.33 658.036 503.505 644.201 483.481 644.201ZM568.128 722.841H615.457C617.46 722.841 618.37 723.569 618.37 725.571V735.947C618.37 737.95 617.46 738.86 615.275 738.86H552.837C550.289 738.86 549.56 737.768 549.56 735.947V629.274H565.033C567.218 629.274 568.128 630.366 568.128 632.551V722.841Z" fill="#429DCA"/>
<path d="M723.403 736.13L689.362 632.915C688.634 630.731 688.088 629.457 684.811 629.457H666.971L632.385 735.948C631.474 738.496 632.202 739.224 634.205 739.224H647.129C649.496 739.224 650.77 738.314 651.498 735.766L658.962 711.919H693.003L682.991 696.446H663.695L677.347 649.116H678.076L703.197 735.766C704.107 738.132 704.653 739.224 707.383 739.224H721.946C723.585 739.042 723.767 737.95 723.403 736.13Z" fill="#429DCA"/>
<path d="M800.042 681.518L799.859 681.154C810.6 676.057 813.148 664.771 813.148 658.4C813.148 640.924 801.862 629.274 779.835 629.274H738.695V735.947C738.695 737.949 739.605 739.042 742.336 739.042H784.386C801.498 739.042 816.243 727.209 816.243 707.731C816.243 699.54 813.33 686.069 800.042 681.518ZM779.653 722.84H757.263V645.293H776.923C788.573 645.293 793.488 651.482 793.488 659.856C793.488 668.048 787.299 674.055 778.743 674.055H759.994L766.183 689.892H779.471C791.304 689.892 796.583 697.719 796.583 706.457C796.765 715.377 793.124 722.84 779.653 722.84Z" fill="#429DCA"/>
<path d="M245.741 735.583L224.078 691.713C238.459 686.251 243.738 673.145 243.738 661.495C243.738 638.74 226.991 629.274 210.062 629.274H170.014V735.947C170.014 738.132 170.924 739.042 173.29 739.042H185.487C187.853 739.042 188.581 737.768 188.581 735.765V645.657H206.057C215.705 645.657 224.26 649.116 224.26 661.495C224.26 676.604 213.884 678.97 205.693 678.97H191.312L197.501 694.625H205.511L224.807 736.129C225.899 738.496 227.173 738.86 229.539 738.86H243.738C245.741 739.042 246.651 737.586 245.741 735.583Z" fill="#429DCA"/>
<path d="M120.863 629.456H83.1816V735.947C83.1816 738.132 84.2739 739.042 86.4583 739.042H98.8368C101.203 739.042 101.749 737.768 101.749 735.947V645.476H118.679C129.965 645.476 137.428 650.937 137.428 662.587C137.428 672.599 132.695 680.608 119.407 680.608H104.662L110.851 696.264H120.863C149.079 696.264 156.36 677.332 156.36 662.041C156.36 640.379 140.887 629.456 120.863 629.456Z" fill="#429DCA"/>
<path d="M833.9 735.766C830.078 734.309 830.078 732.853 830.624 730.669L832.08 723.933C832.808 721.203 833.718 721.203 836.449 721.385C845.005 722.295 858.111 723.751 865.575 723.751C879.592 723.751 886.691 718.654 886.691 709.188C886.691 697.356 881.958 694.261 867.031 691.713C847.553 687.89 830.26 683.339 830.26 660.767C830.26 640.015 844.459 628.546 867.759 628.546C873.949 628.546 888.511 629.093 898.159 632.915C901.8 634.372 901.8 635.828 901.436 638.012L899.798 644.748C899.069 647.478 898.159 647.478 895.065 647.478C887.601 646.568 878.317 645.294 868.669 645.294C854.653 645.294 849.738 650.755 849.738 660.039C849.738 670.415 855.017 671.871 869.398 674.602C888.329 678.424 905.805 682.611 905.805 707.55C905.805 732.489 886.873 740.499 865.757 740.499C857.383 740.499 842.456 739.224 833.9 735.766Z" fill="#429DCA"/>
<path d="M499.99 567.154L322 469.576V263.578L499.99 166L677.979 263.578V469.576C677.979 469.275 499.99 567.154 499.99 567.154ZM361.453 446.085L499.99 522.28L638.526 446.085V286.467L499.99 210.271L361.453 286.467V446.085Z" fill="#429DCA"/>
<path d="M596.663 290.984L403.615 396.694V441.267L596.663 335.557V290.984Z" fill="#429DCA"/>
<path d="M403.615 316.282V360.855L499.989 307.85V263.277L403.615 316.282Z" fill="#85BD41"/>
<path d="M596.664 416.27V371.697L500.291 424.703V469.275L596.664 416.27Z" fill="#343842"/>
</svg>
